G04 ================== begin FILE IDENTIFICATION RECORD ==================*
G04 Layout Name:  PROIECT 1.brd*
G04 Film Name:    BOTTOM*
G04 File Format:  Gerber RS274X*
G04 File Origin:  Cadence Allegro 17.2-S025*
G04 Origin Date:  Sun Dec 14 13:23:40 2025*
G04 *
G04 Layer:  ETCH/BOTTOM*
G04 Layer:  PIN/BOTTOM*
G04 Layer:  VIA CLASS/BOTTOM*
G04 *
G04 Offset:    (0.000 0.000)*
G04 Mirror:    No*
G04 Mode:      Positive*
G04 Rotation:  0*
G04 FullContactRelief:  No*
G04 UndefLineWidth:     4.000*
G04 ================== end FILE IDENTIFICATION RECORD ====================*
%FSLAX25Y25*MOIN*%
%IR0*IPPOS*OFA0.00000B0.00000*MIA0B0*SFA1.00000B1.00000*%
%ADD10C,.028*%
%ADD11C,.016*%
%ADD12C,.018*%
G75*
%LPD*%
G75*
G54D10*
X49528Y31732D03*
X52165Y98307D03*
X73701Y31732D03*
X78110Y53583D03*
X64775Y90602D03*
X96221Y31732D03*
X100315Y53740D03*
X90669Y90394D03*
X106850Y83189D03*
X114173Y131654D03*
X94252Y125315D03*
X141772Y58701D03*
Y76457D03*
X119055Y104651D03*
X140315Y108751D03*
X147688Y66901D03*
G54D11*
G01X49528Y31732D02*
X73701D01*
G01X114173Y131654D02*
X85512D01*
X52165Y98307D01*
G01X73701Y31732D02*
X96221D01*
G01X90669Y90394D02*
Y66142D01*
X78110Y53583D01*
G01X64775Y90602D02*
X87661D01*
X87869Y90394D01*
X90669D01*
G01X141772Y58701D02*
X139792Y56721D01*
X139752D01*
X136772Y53740D01*
X100315D01*
G01X106850Y83189D02*
X114753D01*
X140315Y108751D01*
G01X141772Y76457D02*
Y58701D01*
G01X140315Y108751D02*
X147702Y101364D01*
X147704Y98728D01*
X147688Y98712D01*
Y66901D01*
G54D12*
G01X94252Y125315D02*
X114916Y104651D01*
X119055D01*
M02*
