G04 ================== begin FILE IDENTIFICATION RECORD ==================*
G04 Layout Name:  PROIECT 1.brd*
G04 Film Name:    FAB*
G04 File Format:  Gerber RS274X*
G04 File Origin:  Cadence Allegro 17.2-S025*
G04 Origin Date:  Sun Dec 14 13:23:40 2025*
G04 *
G04 Layer:  MANUFACTURING/NCDRILL_LEGEND*
G04 Layer:  MANUFACTURING/NCDRILL_FIGURE*
G04 Layer:  MANUFACTURING/XSECTION_CHART*
G04 Layer:  MANUFACTURING/NCLEGEND-1-2*
G04 Layer:  DRAWING FORMAT/OUTLINE*
G04 *
G04 Offset:    (0.000 0.000)*
G04 Mirror:    No*
G04 Mode:      Positive*
G04 Rotation:  0*
G04 FullContactRelief:  No*
G04 UndefLineWidth:     4.000*
G04 ================== end FILE IDENTIFICATION RECORD ====================*
%FSLAX25Y25*MOIN*%
%IR0*IPPOS*OFA0.00000B0.00000*MIA0B0*SFA1.00000B1.00000*%
%AMMACRO10*
1,1,.004,.025,0.0*
20,1,.004,.025,0.0,.02462,-.004341,0.0*
1,1,.004,.02462,-.004341*
20,1,.004,.02462,-.004341,.023492,-.008551,0.0*
1,1,.004,.023492,-.008551*
20,1,.004,.023492,-.008551,.021651,-.0125,0.0*
1,1,.004,.021651,-.0125*
20,1,.004,.021651,-.0125,.019151,-.01607,0.0*
1,1,.004,.019151,-.01607*
20,1,.004,.019151,-.01607,.01607,-.019151,0.0*
1,1,.004,.01607,-.019151*
20,1,.004,.01607,-.019151,.0125,-.021651,0.0*
1,1,.004,.0125,-.021651*
20,1,.004,.0125,-.021651,.008551,-.023492,0.0*
1,1,.004,.008551,-.023492*
20,1,.004,.008551,-.023492,.004341,-.02462,0.0*
1,1,.004,.004341,-.02462*
20,1,.004,.004341,-.02462,0.0,-.025,0.0*
1,1,.004,0.0,-.025*
20,1,.004,0.0,-.025,-.004341,-.02462,0.0*
1,1,.004,-.004341,-.02462*
20,1,.004,-.004341,-.02462,-.008551,-.023492,0.0*
1,1,.004,-.008551,-.023492*
20,1,.004,-.008551,-.023492,-.0125,-.021651,0.0*
1,1,.004,-.0125,-.021651*
20,1,.004,-.0125,-.021651,-.01607,-.019151,0.0*
1,1,.004,-.01607,-.019151*
20,1,.004,-.01607,-.019151,-.019151,-.01607,0.0*
1,1,.004,-.019151,-.01607*
20,1,.004,-.019151,-.01607,-.021651,-.0125,0.0*
1,1,.004,-.021651,-.0125*
20,1,.004,-.021651,-.0125,-.023492,-.008551,0.0*
1,1,.004,-.023492,-.008551*
20,1,.004,-.023492,-.008551,-.02462,-.004341,0.0*
1,1,.004,-.02462,-.004341*
20,1,.004,-.02462,-.004341,-.025,0.0,0.0*
1,1,.004,-.025,0.0*
20,1,.004,-.025,0.0,-.02462,.004341,0.0*
1,1,.004,-.02462,.004341*
20,1,.004,-.02462,.004341,-.023492,.008551,0.0*
1,1,.004,-.023492,.008551*
20,1,.004,-.023492,.008551,-.021651,.0125,0.0*
1,1,.004,-.021651,.0125*
20,1,.004,-.021651,.0125,-.019151,.01607,0.0*
1,1,.004,-.019151,.01607*
20,1,.004,-.019151,.01607,-.01607,.019151,0.0*
1,1,.004,-.01607,.019151*
20,1,.004,-.01607,.019151,-.0125,.021651,0.0*
1,1,.004,-.0125,.021651*
20,1,.004,-.0125,.021651,-.008551,.023492,0.0*
1,1,.004,-.008551,.023492*
20,1,.004,-.008551,.023492,-.004341,.02462,0.0*
1,1,.004,-.004341,.02462*
20,1,.004,-.004341,.02462,0.0,.025,0.0*
1,1,.004,0.0,.025*
20,1,.004,0.0,.025,.004341,.02462,0.0*
1,1,.004,.004341,.02462*
20,1,.004,.004341,.02462,.008551,.023492,0.0*
1,1,.004,.008551,.023492*
20,1,.004,.008551,.023492,.0125,.021651,0.0*
1,1,.004,.0125,.021651*
20,1,.004,.0125,.021651,.01607,.019151,0.0*
1,1,.004,.01607,.019151*
20,1,.004,.01607,.019151,.019151,.01607,0.0*
1,1,.004,.019151,.01607*
20,1,.004,.019151,.01607,.021651,.0125,0.0*
1,1,.004,.021651,.0125*
20,1,.004,.021651,.0125,.023492,.008551,0.0*
1,1,.004,.023492,.008551*
20,1,.004,.023492,.008551,.02462,.004341,0.0*
1,1,.004,.02462,.004341*
20,1,.004,.02462,.004341,.025,0.0,0.0*
1,1,.004,.025,0.0*
1,1,.004,.0125,0.0*
20,1,.004,.0125,0.0,-.0125,0.0,0.0*
1,1,.004,-.0125,0.0*
1,1,.004,0.0,.0125*
20,1,.004,0.0,.0125,0.0,-.0125,0.0*
1,1,.004,0.0,-.0125*
%
%ADD10MACRO10*%
%ADD11C,.007874*%
%ADD12C,.004*%
G75*
%LPD*%
G75*
G36*
G01X-198754Y227114D02*
Y224847D01*
X-196255D01*
Y27807D01*
X-198754D01*
Y25540D01*
X-183755D01*
Y27807D01*
X-186254D01*
Y224847D01*
X-183755D01*
Y227114D01*
X-198754D01*
G37*
G36*
G01X-218754Y25540D02*
Y27807D01*
X-158755D01*
Y25540D01*
X-218754D01*
G37*
G36*
G01Y224847D02*
Y227114D01*
X-158755D01*
Y224847D01*
X-218754D01*
G37*
G54D10*
X45462Y-139153D03*
X49528Y31732D03*
X52165Y98307D03*
X73701Y31732D03*
X78110Y53583D03*
X64775Y90602D03*
X96221Y31732D03*
X100315Y53740D03*
X90669Y90394D03*
X106850Y83189D03*
X114173Y131654D03*
X94252Y125315D03*
X141772Y58701D03*
Y76457D03*
X119055Y104651D03*
X140315Y108751D03*
X147688Y66901D03*
G54D11*
G01X-224069Y7729D02*
Y11666D01*
X-223282D01*
X-222967Y11469D01*
X-222731Y11206D01*
X-222534Y10813D01*
X-222376Y10353D01*
X-222337Y9697D01*
X-222376Y9041D01*
X-222534Y8582D01*
X-222731Y8188D01*
X-222967Y7926D01*
X-223282Y7729D01*
X-224069D01*
G01X-219660D02*
X-221235D01*
Y11666D01*
X-219660D01*
G01X-220290Y9763D02*
X-221235D01*
G01X-218518Y8254D02*
X-218203Y7926D01*
X-217849Y7729D01*
X-217534D01*
X-217219Y7926D01*
X-216983Y8254D01*
X-216865Y8713D01*
X-216943Y9172D01*
X-217140Y9566D01*
X-217495Y9829D01*
X-217967Y9960D01*
X-218243Y10222D01*
X-218361Y10682D01*
X-218282Y11141D01*
X-218085Y11469D01*
X-217810Y11666D01*
X-217534D01*
X-217258Y11535D01*
X-217022Y11206D01*
G01X-215408Y11666D02*
X-214463D01*
G01X-214936D02*
Y7729D01*
G01X-215408D02*
X-214463D01*
G01X-211944Y9697D02*
X-211156D01*
Y8516D01*
X-211392Y8122D01*
X-211668Y7860D01*
X-212062Y7729D01*
X-212455Y7860D01*
X-212731Y8122D01*
X-212967Y8516D01*
X-213125Y8976D01*
X-213203Y9500D01*
Y9960D01*
X-213125Y10353D01*
X-212967Y10813D01*
X-212731Y11206D01*
X-212495Y11469D01*
X-212180Y11666D01*
X-211904D01*
X-211589Y11535D01*
X-211353Y11272D01*
G01X-210329Y7729D02*
Y11666D01*
X-208518Y7729D01*
Y11666D01*
G01X-203046Y11338D02*
X-203282Y11535D01*
X-203558Y11666D01*
X-203873D01*
X-204227Y11469D01*
X-204503Y11141D01*
X-204699Y10747D01*
X-204857Y10091D01*
X-204896Y9500D01*
X-204818Y8910D01*
X-204699Y8516D01*
X-204463Y8122D01*
X-204188Y7860D01*
X-203912Y7729D01*
X-203636D01*
X-203361Y7860D01*
X-203125Y8057D01*
X-202928Y8319D01*
G01X-201944Y7729D02*
Y11666D01*
X-200959D01*
X-200644Y11469D01*
X-200447Y11206D01*
X-200369Y10682D01*
X-200447Y10157D01*
X-200684Y9829D01*
X-200959Y9632D01*
X-201944D01*
G01X-200959D02*
X-200369Y7729D01*
G01X-198400D02*
X-198715Y7794D01*
X-198991Y8057D01*
X-199227Y8450D01*
X-199384Y8910D01*
X-199463Y9435D01*
Y9960D01*
X-199384Y10485D01*
X-199227Y10944D01*
X-198991Y11338D01*
X-198715Y11600D01*
X-198400Y11666D01*
X-198085Y11600D01*
X-197810Y11338D01*
X-197573Y10944D01*
X-197416Y10485D01*
X-197337Y9960D01*
Y9435D01*
X-197416Y8910D01*
X-197573Y8450D01*
X-197810Y8057D01*
X-198085Y7794D01*
X-198400Y7729D01*
G01X-196471Y8254D02*
X-196156Y7926D01*
X-195802Y7729D01*
X-195487D01*
X-195172Y7926D01*
X-194936Y8254D01*
X-194818Y8713D01*
X-194896Y9172D01*
X-195093Y9566D01*
X-195448Y9829D01*
X-195920Y9960D01*
X-196196Y10222D01*
X-196314Y10682D01*
X-196235Y11141D01*
X-196038Y11469D01*
X-195762Y11666D01*
X-195487D01*
X-195211Y11535D01*
X-194975Y11206D01*
G01X-193715Y8254D02*
X-193400Y7926D01*
X-193046Y7729D01*
X-192731D01*
X-192416Y7926D01*
X-192180Y8254D01*
X-192062Y8713D01*
X-192140Y9172D01*
X-192337Y9566D01*
X-192692Y9829D01*
X-193164Y9960D01*
X-193440Y10222D01*
X-193558Y10682D01*
X-193479Y11141D01*
X-193282Y11469D01*
X-193006Y11666D01*
X-192731D01*
X-192455Y11535D01*
X-192219Y11206D01*
G01X-188203Y8254D02*
X-187888Y7926D01*
X-187534Y7729D01*
X-187219D01*
X-186904Y7926D01*
X-186668Y8254D01*
X-186550Y8713D01*
X-186629Y9172D01*
X-186825Y9566D01*
X-187180Y9829D01*
X-187652Y9960D01*
X-187928Y10222D01*
X-188046Y10682D01*
X-187967Y11141D01*
X-187770Y11469D01*
X-187495Y11666D01*
X-187219D01*
X-186944Y11535D01*
X-186707Y11206D01*
G01X-183833Y7729D02*
X-185408D01*
Y11666D01*
X-183833D01*
G01X-184463Y9763D02*
X-185408D01*
G01X-180999Y11338D02*
X-181235Y11535D01*
X-181510Y11666D01*
X-181825D01*
X-182180Y11469D01*
X-182455Y11141D01*
X-182652Y10747D01*
X-182810Y10091D01*
X-182849Y9500D01*
X-182770Y8910D01*
X-182652Y8516D01*
X-182416Y8122D01*
X-182140Y7860D01*
X-181865Y7729D01*
X-181589D01*
X-181314Y7860D01*
X-181077Y8057D01*
X-180880Y8319D01*
G01X-179109Y11666D02*
Y7729D01*
G01X-180014Y11666D02*
X-178203D01*
G01X-176825D02*
X-175881D01*
G01X-176353D02*
Y7729D01*
G01X-176825D02*
X-175881D01*
G01X-173597D02*
X-173912Y7794D01*
X-174188Y8057D01*
X-174424Y8450D01*
X-174581Y8910D01*
X-174660Y9435D01*
Y9960D01*
X-174581Y10485D01*
X-174424Y10944D01*
X-174188Y11338D01*
X-173912Y11600D01*
X-173597Y11666D01*
X-173282Y11600D01*
X-173007Y11338D01*
X-172770Y10944D01*
X-172613Y10485D01*
X-172534Y9960D01*
Y9435D01*
X-172613Y8910D01*
X-172770Y8450D01*
X-173007Y8057D01*
X-173282Y7794D01*
X-173597Y7729D01*
G01X-171747D02*
Y11666D01*
X-169936Y7729D01*
Y11666D01*
G01X-164463Y11338D02*
X-164700Y11535D01*
X-164975Y11666D01*
X-165290D01*
X-165644Y11469D01*
X-165920Y11141D01*
X-166117Y10747D01*
X-166274Y10091D01*
X-166314Y9500D01*
X-166235Y8910D01*
X-166117Y8516D01*
X-165881Y8122D01*
X-165605Y7860D01*
X-165329Y7729D01*
X-165054D01*
X-164778Y7860D01*
X-164542Y8057D01*
X-164345Y8319D01*
G01X-163400Y7729D02*
Y11666D01*
G01X-161747D02*
Y7729D01*
G01Y9697D02*
X-163400D01*
G01X-160802Y7729D02*
X-159818Y11666D01*
X-158833Y7729D01*
G01X-159188Y9107D02*
X-160448D01*
G01X-157849Y7729D02*
Y11666D01*
X-156865D01*
X-156550Y11469D01*
X-156353Y11206D01*
X-156274Y10682D01*
X-156353Y10157D01*
X-156589Y9829D01*
X-156865Y9632D01*
X-157849D01*
G01X-156865D02*
X-156274Y7729D01*
G01X-154306Y11666D02*
Y7729D01*
G01X-155211Y11666D02*
X-153400D01*
G01X-225762Y6417D02*
X-223400D01*
G01X-223006D02*
X-220644D01*
G01X-220250D02*
X-217888D01*
G01X-217495D02*
X-215132D01*
G01X-214739D02*
X-212376D01*
G01X-211983D02*
X-209621D01*
G01X-209227D02*
X-206865D01*
G01X-206471D02*
X-204109D01*
G01X-203715D02*
X-201353D01*
G01X-200959D02*
X-198597D01*
G01X-198203D02*
X-195841D01*
G01X-195447D02*
X-193085D01*
G01X-192692D02*
X-190329D01*
G01X-189936D02*
X-187573D01*
G01X-187180D02*
X-184818D01*
G01X-184424D02*
X-182062D01*
G01X-181668D02*
X-179306D01*
G01X-178912D02*
X-176550D01*
G01X-176156D02*
X-173794D01*
G01X-173400D02*
X-171038D01*
G01X-170644D02*
X-168282D01*
G01X-167888D02*
X-165526D01*
G01X-165133D02*
X-162770D01*
G01X-162377D02*
X-160014D01*
G01X-159621D02*
X-157258D01*
G01X-156865D02*
X-154503D01*
G01X-154109D02*
X-151747D01*
G01X-224581Y4579D02*
Y642D01*
G01X-225487Y4579D02*
X-223676D01*
G01X-221825Y642D02*
X-222140Y708D01*
X-222416Y970D01*
X-222652Y1364D01*
X-222810Y1823D01*
X-222888Y2348D01*
Y2873D01*
X-222810Y3398D01*
X-222652Y3858D01*
X-222416Y4251D01*
X-222140Y4514D01*
X-221825Y4579D01*
X-221510Y4514D01*
X-221235Y4251D01*
X-220998Y3858D01*
X-220841Y3398D01*
X-220762Y2873D01*
Y2348D01*
X-220841Y1823D01*
X-220998Y1364D01*
X-221235Y970D01*
X-221510Y708D01*
X-221825Y642D01*
G01X-219069Y4579D02*
Y642D01*
G01X-219975Y4579D02*
X-218164D01*
G01X-217298Y642D02*
X-216314Y4579D01*
X-215329Y642D01*
G01X-215684Y2020D02*
X-216944D01*
G01X-214345Y4579D02*
Y642D01*
X-212770D01*
G01X-208046Y4579D02*
Y642D01*
G01X-208951Y4579D02*
X-207140D01*
G01X-206117Y642D02*
Y4579D01*
G01X-204463D02*
Y642D01*
G01Y2611D02*
X-206117D01*
G01X-203006Y4579D02*
X-202062D01*
G01X-202534D02*
Y642D01*
G01X-203006D02*
X-202062D01*
G01X-198912Y4251D02*
X-199148Y4448D01*
X-199424Y4579D01*
X-199739D01*
X-200093Y4382D01*
X-200369Y4054D01*
X-200566Y3660D01*
X-200723Y3004D01*
X-200762Y2414D01*
X-200684Y1823D01*
X-200566Y1430D01*
X-200329Y1036D01*
X-200054Y773D01*
X-199778Y642D01*
X-199502D01*
X-199227Y773D01*
X-198991Y970D01*
X-198794Y1233D01*
G01X-197888Y642D02*
Y4579D01*
G01X-196392D02*
X-197888Y2151D01*
G01X-196156Y642D02*
X-197219Y3267D01*
G01X-195172Y642D02*
Y4579D01*
X-193361Y642D01*
Y4579D01*
G01X-190723Y642D02*
X-192298D01*
Y4579D01*
X-190723D01*
G01X-191353Y2676D02*
X-192298D01*
G01X-189581Y1167D02*
X-189266Y839D01*
X-188912Y642D01*
X-188597D01*
X-188282Y839D01*
X-188046Y1167D01*
X-187928Y1627D01*
X-188006Y2086D01*
X-188203Y2479D01*
X-188558Y2742D01*
X-189030Y2873D01*
X-189306Y3136D01*
X-189424Y3595D01*
X-189345Y4054D01*
X-189148Y4382D01*
X-188873Y4579D01*
X-188597D01*
X-188321Y4448D01*
X-188085Y4120D01*
G01X-186825Y1167D02*
X-186510Y839D01*
X-186156Y642D01*
X-185841D01*
X-185526Y839D01*
X-185290Y1167D01*
X-185172Y1627D01*
X-185250Y2086D01*
X-185447Y2479D01*
X-185802Y2742D01*
X-186274Y2873D01*
X-186550Y3136D01*
X-186668Y3595D01*
X-186589Y4054D01*
X-186392Y4382D01*
X-186117Y4579D01*
X-185841D01*
X-185566Y4448D01*
X-185329Y4120D01*
G01X-180487Y642D02*
Y4579D01*
X-180959Y3792D01*
G01Y642D02*
X-180014D01*
G01X-177731Y511D02*
X-177810Y577D01*
Y708D01*
X-177731Y773D01*
X-177652Y708D01*
Y577D01*
X-177731Y511D01*
G01X-175841Y1233D02*
X-175605Y905D01*
X-175329Y708D01*
X-174975Y642D01*
X-174621Y773D01*
X-174345Y1036D01*
X-174148Y1495D01*
X-174109Y2020D01*
X-174188Y2545D01*
X-174384Y2873D01*
X-174660Y3136D01*
X-174936Y3201D01*
X-175211Y3136D01*
X-175566Y2873D01*
X-175447Y4579D01*
X-174384D01*
G01X-172888Y1101D02*
X-172613Y773D01*
X-172298Y642D01*
X-171983Y773D01*
X-171707Y1167D01*
X-171510Y1758D01*
X-171432Y2348D01*
Y3070D01*
X-171510Y3660D01*
X-171707Y4186D01*
X-171944Y4448D01*
X-172219Y4579D01*
X-172534Y4448D01*
X-172770Y4186D01*
X-172928Y3792D01*
X-173007Y3267D01*
X-172928Y2808D01*
X-172731Y2348D01*
X-172495Y2086D01*
X-172219Y2020D01*
X-171904Y2151D01*
X-171668Y2479D01*
X-171432Y3070D01*
G01X-170132Y1101D02*
X-169857Y773D01*
X-169542Y642D01*
X-169227Y773D01*
X-168951Y1167D01*
X-168754Y1758D01*
X-168676Y2348D01*
Y3070D01*
X-168754Y3660D01*
X-168951Y4186D01*
X-169188Y4448D01*
X-169463Y4579D01*
X-169778Y4448D01*
X-170014Y4186D01*
X-170172Y3792D01*
X-170251Y3267D01*
X-170172Y2808D01*
X-169975Y2348D01*
X-169739Y2086D01*
X-169463Y2020D01*
X-169148Y2151D01*
X-168912Y2479D01*
X-168676Y3070D01*
G01X-167377Y1101D02*
X-167101Y773D01*
X-166786Y642D01*
X-166471Y773D01*
X-166196Y1167D01*
X-165999Y1758D01*
X-165920Y2348D01*
Y3070D01*
X-165999Y3660D01*
X-166196Y4186D01*
X-166432Y4448D01*
X-166707Y4579D01*
X-167022Y4448D01*
X-167258Y4186D01*
X-167416Y3792D01*
X-167495Y3267D01*
X-167416Y2808D01*
X-167219Y2348D01*
X-166983Y2086D01*
X-166707Y2020D01*
X-166392Y2151D01*
X-166156Y2479D01*
X-165920Y3070D01*
G01X-164621Y1101D02*
X-164345Y773D01*
X-164030Y642D01*
X-163715Y773D01*
X-163440Y1167D01*
X-163243Y1758D01*
X-163164Y2348D01*
Y3070D01*
X-163243Y3660D01*
X-163440Y4186D01*
X-163676Y4448D01*
X-163951Y4579D01*
X-164266Y4448D01*
X-164503Y4186D01*
X-164660Y3792D01*
X-164739Y3267D01*
X-164660Y2808D01*
X-164463Y2348D01*
X-164227Y2086D01*
X-163951Y2020D01*
X-163636Y2151D01*
X-163400Y2479D01*
X-163164Y3070D01*
G01X-161865Y1101D02*
X-161589Y773D01*
X-161274Y642D01*
X-160959Y773D01*
X-160684Y1167D01*
X-160487Y1758D01*
X-160408Y2348D01*
Y3070D01*
X-160487Y3660D01*
X-160684Y4186D01*
X-160920Y4448D01*
X-161196Y4579D01*
X-161510Y4448D01*
X-161747Y4186D01*
X-161904Y3792D01*
X-161983Y3267D01*
X-161904Y2808D01*
X-161707Y2348D01*
X-161471Y2086D01*
X-161196Y2020D01*
X-160881Y2151D01*
X-160644Y2479D01*
X-160408Y3070D01*
G01X-156707Y642D02*
Y4579D01*
X-155684Y1298D01*
X-154660Y4579D01*
Y642D01*
G01X-153952D02*
Y4579D01*
X-152928Y1298D01*
X-151904Y4579D01*
Y642D01*
G01X-191255Y232232D02*
X-195192D01*
X-194404Y231760D01*
G01X-191255D02*
Y232705D01*
G01X-192567Y234477D02*
Y235500D01*
G01X-194535Y236996D02*
X-194929Y237232D01*
X-195126Y237508D01*
X-195192Y237823D01*
X-195060Y238217D01*
X-194732Y238492D01*
X-194338Y238571D01*
X-193945Y238532D01*
X-193617Y238374D01*
X-192960Y237587D01*
X-192501Y237232D01*
X-191845Y236996D01*
X-191255Y236918D01*
Y238571D01*
G01X-150172Y17178D02*
X-148440Y20065D01*
G01X-149306Y20590D02*
Y16653D01*
G01X-148440Y17178D02*
X-150172Y20065D01*
G01X-150487Y18621D02*
X-148125D01*
G01X-141865Y17834D02*
X-141550Y17506D01*
X-141195Y17309D01*
X-140880D01*
X-140566Y17506D01*
X-140329Y17834D01*
X-140211Y18293D01*
X-140290Y18752D01*
X-140487Y19146D01*
X-140841Y19409D01*
X-141314Y19540D01*
X-141589Y19802D01*
X-141707Y20262D01*
X-141628Y20721D01*
X-141432Y21049D01*
X-141156Y21246D01*
X-140880D01*
X-140605Y21115D01*
X-140369Y20787D01*
G01X-139148Y21246D02*
Y18424D01*
X-138991Y17834D01*
X-138676Y17440D01*
X-138282Y17309D01*
X-137888Y17440D01*
X-137573Y17834D01*
X-137416Y18424D01*
Y21246D01*
G01X-136314Y17309D02*
Y21246D01*
X-135329D01*
X-135014Y21049D01*
X-134818Y20787D01*
X-134739Y20262D01*
X-134818Y19737D01*
X-135054Y19409D01*
X-135329Y19212D01*
X-136314D01*
G01X-135329D02*
X-134739Y17309D01*
G01X-133518D02*
Y21246D01*
X-132022D01*
G01X-132574Y19343D02*
X-133518D01*
G01X-130999Y17309D02*
X-130014Y21246D01*
X-129030Y17309D01*
G01X-129385Y18687D02*
X-130644D01*
G01X-126392Y20918D02*
X-126629Y21115D01*
X-126904Y21246D01*
X-127219D01*
X-127573Y21049D01*
X-127849Y20721D01*
X-128046Y20327D01*
X-128203Y19671D01*
X-128243Y19080D01*
X-128164Y18490D01*
X-128046Y18096D01*
X-127810Y17702D01*
X-127534Y17440D01*
X-127259Y17309D01*
X-126983D01*
X-126707Y17440D01*
X-126471Y17637D01*
X-126274Y17899D01*
G01X-123715Y17309D02*
X-125290D01*
Y21246D01*
X-123715D01*
G01X-124345Y19343D02*
X-125290D01*
G01X-119503Y18621D02*
X-118479D01*
G01X-113479Y21246D02*
X-113794Y21115D01*
X-114030Y20787D01*
X-114188Y20393D01*
X-114306Y19868D01*
X-114345Y19277D01*
X-114306Y18687D01*
X-114188Y18162D01*
X-114030Y17768D01*
X-113794Y17440D01*
X-113479Y17309D01*
X-113164Y17440D01*
X-112928Y17768D01*
X-112770Y18162D01*
X-112652Y18687D01*
X-112613Y19277D01*
X-112652Y19868D01*
X-112770Y20393D01*
X-112928Y20787D01*
X-113164Y21115D01*
X-113479Y21246D01*
G01X-108991Y17309D02*
Y21246D01*
X-107967Y17965D01*
X-106943Y21246D01*
Y17309D01*
G01X-106235D02*
Y21246D01*
X-105211Y17965D01*
X-104188Y21246D01*
Y17309D01*
G01X-155605Y26495D02*
Y22558D01*
X-154030D01*
G01X-152810Y25839D02*
X-152573Y26233D01*
X-152298Y26430D01*
X-151983Y26495D01*
X-151589Y26364D01*
X-151314Y26036D01*
X-151235Y25642D01*
X-151274Y25248D01*
X-151432Y24920D01*
X-152219Y24264D01*
X-152573Y23805D01*
X-152810Y23149D01*
X-152888Y22558D01*
X-151235D01*
G01X-146235Y24658D02*
X-146077Y24855D01*
X-145959Y25183D01*
X-145880Y25642D01*
X-145959Y26036D01*
X-146117Y26298D01*
X-146392Y26495D01*
X-147455D01*
Y22558D01*
X-146156D01*
X-145880Y22821D01*
X-145723Y23214D01*
X-145644Y23674D01*
X-145723Y24133D01*
X-145959Y24526D01*
X-146235Y24658D01*
X-147455D01*
G01X-143794Y22558D02*
X-144109Y22624D01*
X-144384Y22886D01*
X-144621Y23280D01*
X-144778Y23739D01*
X-144857Y24264D01*
Y24789D01*
X-144778Y25314D01*
X-144621Y25773D01*
X-144384Y26167D01*
X-144109Y26430D01*
X-143794Y26495D01*
X-143479Y26430D01*
X-143203Y26167D01*
X-142967Y25773D01*
X-142810Y25314D01*
X-142731Y24789D01*
Y24264D01*
X-142810Y23739D01*
X-142967Y23280D01*
X-143203Y22886D01*
X-143479Y22624D01*
X-143794Y22558D01*
G01X-141038Y26495D02*
Y22558D01*
G01X-141944Y26495D02*
X-140133D01*
G01X-138282D02*
Y22558D01*
G01X-139188Y26495D02*
X-137377D01*
G01X-135526Y22558D02*
X-135841Y22624D01*
X-136117Y22886D01*
X-136353Y23280D01*
X-136510Y23739D01*
X-136589Y24264D01*
Y24789D01*
X-136510Y25314D01*
X-136353Y25773D01*
X-136117Y26167D01*
X-135841Y26430D01*
X-135526Y26495D01*
X-135211Y26430D01*
X-134936Y26167D01*
X-134699Y25773D01*
X-134542Y25314D01*
X-134463Y24789D01*
Y24264D01*
X-134542Y23739D01*
X-134699Y23280D01*
X-134936Y22886D01*
X-135211Y22624D01*
X-135526Y22558D01*
G01X-133794D02*
Y26495D01*
X-132770Y23214D01*
X-131747Y26495D01*
Y22558D01*
G01X-126392Y26167D02*
X-126629Y26364D01*
X-126904Y26495D01*
X-127219D01*
X-127573Y26298D01*
X-127849Y25970D01*
X-128046Y25576D01*
X-128203Y24920D01*
X-128243Y24330D01*
X-128164Y23739D01*
X-128046Y23346D01*
X-127810Y22952D01*
X-127534Y22689D01*
X-127259Y22558D01*
X-126983D01*
X-126707Y22689D01*
X-126471Y22886D01*
X-126274Y23149D01*
G01X-124503Y22558D02*
X-124818Y22624D01*
X-125093Y22886D01*
X-125329Y23280D01*
X-125487Y23739D01*
X-125566Y24264D01*
Y24789D01*
X-125487Y25314D01*
X-125329Y25773D01*
X-125093Y26167D01*
X-124818Y26430D01*
X-124503Y26495D01*
X-124188Y26430D01*
X-123912Y26167D01*
X-123676Y25773D01*
X-123518Y25314D01*
X-123440Y24789D01*
Y24264D01*
X-123518Y23739D01*
X-123676Y23280D01*
X-123912Y22886D01*
X-124188Y22624D01*
X-124503Y22558D01*
G01X-122652D02*
Y26495D01*
X-120841Y22558D01*
Y26495D01*
G01X-119857Y22558D02*
Y26495D01*
X-119070D01*
X-118755Y26298D01*
X-118518Y26036D01*
X-118321Y25642D01*
X-118164Y25183D01*
X-118125Y24526D01*
X-118164Y23870D01*
X-118321Y23411D01*
X-118518Y23017D01*
X-118755Y22755D01*
X-119070Y22558D01*
X-119857D01*
G01X-117101Y26495D02*
Y23674D01*
X-116944Y23083D01*
X-116629Y22689D01*
X-116235Y22558D01*
X-115841Y22689D01*
X-115526Y23083D01*
X-115369Y23674D01*
Y26495D01*
G01X-112613Y26167D02*
X-112849Y26364D01*
X-113125Y26495D01*
X-113440D01*
X-113794Y26298D01*
X-114070Y25970D01*
X-114266Y25576D01*
X-114424Y24920D01*
X-114463Y24330D01*
X-114384Y23739D01*
X-114266Y23346D01*
X-114030Y22952D01*
X-113755Y22689D01*
X-113479Y22558D01*
X-113203D01*
X-112928Y22689D01*
X-112692Y22886D01*
X-112495Y23149D01*
G01X-110723Y26495D02*
Y22558D01*
G01X-111629Y26495D02*
X-109818D01*
G01X-107967Y22558D02*
X-108282Y22624D01*
X-108558Y22886D01*
X-108794Y23280D01*
X-108952Y23739D01*
X-109030Y24264D01*
Y24789D01*
X-108952Y25314D01*
X-108794Y25773D01*
X-108558Y26167D01*
X-108282Y26430D01*
X-107967Y26495D01*
X-107652Y26430D01*
X-107377Y26167D01*
X-107140Y25773D01*
X-106983Y25314D01*
X-106904Y24789D01*
Y24264D01*
X-106983Y23739D01*
X-107140Y23280D01*
X-107377Y22886D01*
X-107652Y22624D01*
X-107967Y22558D01*
G01X-105999D02*
Y26495D01*
X-105015D01*
X-104699Y26298D01*
X-104503Y26036D01*
X-104424Y25511D01*
X-104503Y24986D01*
X-104739Y24658D01*
X-105015Y24461D01*
X-105999D01*
G01X-105015D02*
X-104424Y22558D01*
G01X-100211Y23870D02*
X-99188D01*
G01X-94188Y26495D02*
X-94503Y26364D01*
X-94739Y26036D01*
X-94896Y25642D01*
X-95014Y25117D01*
X-95054Y24526D01*
X-95014Y23936D01*
X-94896Y23411D01*
X-94739Y23017D01*
X-94503Y22689D01*
X-94188Y22558D01*
X-93873Y22689D01*
X-93636Y23017D01*
X-93479Y23411D01*
X-93361Y23936D01*
X-93322Y24526D01*
X-93361Y25117D01*
X-93479Y25642D01*
X-93636Y26036D01*
X-93873Y26364D01*
X-94188Y26495D01*
G01X-91432Y22427D02*
X-91511Y22492D01*
Y22624D01*
X-91432Y22689D01*
X-91353Y22624D01*
Y22492D01*
X-91432Y22427D01*
G01X-88676Y26495D02*
X-88991Y26364D01*
X-89227Y26036D01*
X-89385Y25642D01*
X-89503Y25117D01*
X-89542Y24526D01*
X-89503Y23936D01*
X-89385Y23411D01*
X-89227Y23017D01*
X-88991Y22689D01*
X-88676Y22558D01*
X-88361Y22689D01*
X-88125Y23017D01*
X-87967Y23411D01*
X-87849Y23936D01*
X-87810Y24526D01*
X-87849Y25117D01*
X-87967Y25642D01*
X-88125Y26036D01*
X-88361Y26364D01*
X-88676Y26495D01*
G01X-85920Y22558D02*
Y26495D01*
X-86392Y25708D01*
G01Y22558D02*
X-85448D01*
G01X-83164D02*
X-82888Y22624D01*
X-82574Y22821D01*
X-82377Y23149D01*
X-82298Y23608D01*
X-82377Y24067D01*
X-82613Y24461D01*
X-82967Y24658D01*
X-83361D01*
X-83597Y24789D01*
X-83794Y25117D01*
X-83873Y25576D01*
X-83755Y26036D01*
X-83479Y26364D01*
X-83164Y26495D01*
X-82849Y26364D01*
X-82574Y26036D01*
X-82455Y25576D01*
X-82534Y25117D01*
X-82731Y24789D01*
X-82967Y24658D01*
X-83361D01*
X-83715Y24461D01*
X-83952Y24067D01*
X-84030Y23608D01*
X-83952Y23149D01*
X-83755Y22821D01*
X-83440Y22624D01*
X-83164Y22558D01*
G01X-80408Y26495D02*
X-80723Y26364D01*
X-80959Y26036D01*
X-81117Y25642D01*
X-81235Y25117D01*
X-81274Y24526D01*
X-81235Y23936D01*
X-81117Y23411D01*
X-80959Y23017D01*
X-80723Y22689D01*
X-80408Y22558D01*
X-80093Y22689D01*
X-79857Y23017D01*
X-79700Y23411D01*
X-79581Y23936D01*
X-79542Y24526D01*
X-79581Y25117D01*
X-79700Y25642D01*
X-79857Y26036D01*
X-80093Y26364D01*
X-80408Y26495D01*
G01X-77652D02*
X-77967Y26364D01*
X-78204Y26036D01*
X-78361Y25642D01*
X-78479Y25117D01*
X-78518Y24526D01*
X-78479Y23936D01*
X-78361Y23411D01*
X-78204Y23017D01*
X-77967Y22689D01*
X-77652Y22558D01*
X-77337Y22689D01*
X-77101Y23017D01*
X-76944Y23411D01*
X-76826Y23936D01*
X-76786Y24526D01*
X-76826Y25117D01*
X-76944Y25642D01*
X-77101Y26036D01*
X-77337Y26364D01*
X-77652Y26495D01*
G01X-74896Y22558D02*
Y26495D01*
X-75369Y25708D01*
G01Y22558D02*
X-74424D01*
G01X-70408D02*
Y26495D01*
X-69385Y23214D01*
X-68361Y26495D01*
Y22558D01*
G01X-67652D02*
Y26495D01*
X-66629Y23214D01*
X-65605Y26495D01*
Y22558D01*
G01X-150172Y126196D02*
X-148440Y129083D01*
G01X-149306Y129608D02*
Y125671D01*
G01X-148440Y126196D02*
X-150172Y129083D01*
G01X-150487Y127639D02*
X-148125D01*
G01X-141904Y126327D02*
Y130264D01*
X-141117D01*
X-140802Y130067D01*
X-140566Y129805D01*
X-140369Y129411D01*
X-140211Y128952D01*
X-140172Y128295D01*
X-140211Y127639D01*
X-140369Y127180D01*
X-140566Y126786D01*
X-140802Y126524D01*
X-141117Y126327D01*
X-141904D01*
G01X-138754Y130264D02*
X-137810D01*
G01X-138282D02*
Y126327D01*
G01X-138754D02*
X-137810D01*
G01X-134739D02*
X-136314D01*
Y130264D01*
X-134739D01*
G01X-135369Y128361D02*
X-136314D01*
G01X-133558Y130264D02*
Y126327D01*
X-131983D01*
G01X-129227D02*
X-130802D01*
Y130264D01*
X-129227D01*
G01X-129857Y128361D02*
X-130802D01*
G01X-126392Y129936D02*
X-126629Y130133D01*
X-126904Y130264D01*
X-127219D01*
X-127573Y130067D01*
X-127849Y129739D01*
X-128046Y129345D01*
X-128203Y128689D01*
X-128243Y128099D01*
X-128164Y127508D01*
X-128046Y127114D01*
X-127810Y126721D01*
X-127534Y126458D01*
X-127259Y126327D01*
X-126983D01*
X-126707Y126458D01*
X-126471Y126655D01*
X-126274Y126918D01*
G01X-124503Y130264D02*
Y126327D01*
G01X-125408Y130264D02*
X-123597D01*
G01X-122534Y126327D02*
Y130264D01*
X-121550D01*
X-121235Y130067D01*
X-121038Y129805D01*
X-120959Y129280D01*
X-121038Y128755D01*
X-121274Y128427D01*
X-121550Y128230D01*
X-122534D01*
G01X-121550D02*
X-120959Y126327D01*
G01X-119463Y130264D02*
X-118518D01*
G01X-118991D02*
Y126327D01*
G01X-119463D02*
X-118518D01*
G01X-115369Y129936D02*
X-115605Y130133D01*
X-115881Y130264D01*
X-116195D01*
X-116550Y130067D01*
X-116825Y129739D01*
X-117022Y129345D01*
X-117180Y128689D01*
X-117219Y128099D01*
X-117140Y127508D01*
X-117022Y127114D01*
X-116786Y126721D01*
X-116510Y126458D01*
X-116235Y126327D01*
X-115959D01*
X-115684Y126458D01*
X-115447Y126655D01*
X-115251Y126918D01*
G01X-111235Y127639D02*
X-110211D01*
G01X-105211Y126327D02*
Y130264D01*
X-105684Y129477D01*
G01Y126327D02*
X-104739D01*
G01X-102455Y126196D02*
X-102534Y126262D01*
Y126393D01*
X-102455Y126458D01*
X-102377Y126393D01*
Y126262D01*
X-102455Y126196D01*
G01X-100566Y126918D02*
X-100330Y126590D01*
X-100054Y126393D01*
X-99700Y126327D01*
X-99345Y126458D01*
X-99070Y126721D01*
X-98873Y127180D01*
X-98833Y127705D01*
X-98912Y128230D01*
X-99109Y128558D01*
X-99385Y128820D01*
X-99660Y128886D01*
X-99936Y128820D01*
X-100290Y128558D01*
X-100172Y130264D01*
X-99109D01*
G01X-97692Y127967D02*
X-97416Y128427D01*
X-97180Y128689D01*
X-96865Y128820D01*
X-96589Y128689D01*
X-96392Y128427D01*
X-96235Y128033D01*
X-96196Y127574D01*
X-96235Y127180D01*
X-96392Y126786D01*
X-96629Y126458D01*
X-96904Y126327D01*
X-97219Y126458D01*
X-97495Y126852D01*
X-97652Y127443D01*
X-97692Y128099D01*
X-97613Y128952D01*
X-97495Y129411D01*
X-97298Y129870D01*
X-97022Y130198D01*
X-96747Y130264D01*
X-96471Y130133D01*
X-96274Y129805D01*
G01X-93715Y126327D02*
Y130264D01*
X-95172Y127443D01*
X-93203D01*
G01X-89700Y126327D02*
Y130264D01*
X-88676Y126983D01*
X-87652Y130264D01*
Y126327D01*
G01X-86944D02*
Y130264D01*
X-85920Y126983D01*
X-84896Y130264D01*
Y126327D01*
G01X-155605Y225802D02*
Y221865D01*
X-154030D01*
G01X-152062D02*
Y225802D01*
X-152534Y225015D01*
G01Y221865D02*
X-151589D01*
G01X-146550Y225802D02*
Y221865D01*
G01X-147455Y225802D02*
X-145644D01*
G01X-143794Y221865D02*
X-144109Y221931D01*
X-144384Y222193D01*
X-144621Y222587D01*
X-144778Y223046D01*
X-144857Y223571D01*
Y224096D01*
X-144778Y224621D01*
X-144621Y225080D01*
X-144384Y225474D01*
X-144109Y225736D01*
X-143794Y225802D01*
X-143479Y225736D01*
X-143203Y225474D01*
X-142967Y225080D01*
X-142810Y224621D01*
X-142731Y224096D01*
Y223571D01*
X-142810Y223046D01*
X-142967Y222587D01*
X-143203Y222193D01*
X-143479Y221931D01*
X-143794Y221865D01*
G01X-141825D02*
Y225802D01*
X-140880D01*
X-140566Y225605D01*
X-140329Y225146D01*
X-140251Y224621D01*
X-140329Y224096D01*
X-140526Y223702D01*
X-140880Y223505D01*
X-141825D01*
G01X-134660Y225474D02*
X-134896Y225671D01*
X-135172Y225802D01*
X-135487D01*
X-135841Y225605D01*
X-136117Y225277D01*
X-136314Y224883D01*
X-136471Y224227D01*
X-136510Y223637D01*
X-136432Y223046D01*
X-136314Y222652D01*
X-136077Y222259D01*
X-135802Y221996D01*
X-135526Y221865D01*
X-135251D01*
X-134975Y221996D01*
X-134739Y222193D01*
X-134542Y222456D01*
G01X-132770Y221865D02*
X-133085Y221931D01*
X-133361Y222193D01*
X-133597Y222587D01*
X-133755Y223046D01*
X-133833Y223571D01*
Y224096D01*
X-133755Y224621D01*
X-133597Y225080D01*
X-133361Y225474D01*
X-133085Y225736D01*
X-132770Y225802D01*
X-132455Y225736D01*
X-132180Y225474D01*
X-131944Y225080D01*
X-131786Y224621D01*
X-131707Y224096D01*
Y223571D01*
X-131786Y223046D01*
X-131944Y222587D01*
X-132180Y222193D01*
X-132455Y221931D01*
X-132770Y221865D01*
G01X-130920D02*
Y225802D01*
X-129109Y221865D01*
Y225802D01*
G01X-128125Y221865D02*
Y225802D01*
X-127337D01*
X-127022Y225605D01*
X-126786Y225343D01*
X-126589Y224949D01*
X-126432Y224490D01*
X-126392Y223834D01*
X-126432Y223177D01*
X-126589Y222718D01*
X-126786Y222324D01*
X-127022Y222062D01*
X-127337Y221865D01*
X-128125D01*
G01X-125369Y225802D02*
Y222981D01*
X-125211Y222390D01*
X-124896Y221996D01*
X-124503Y221865D01*
X-124109Y221996D01*
X-123794Y222390D01*
X-123636Y222981D01*
Y225802D01*
G01X-120881Y225474D02*
X-121117Y225671D01*
X-121392Y225802D01*
X-121707D01*
X-122062Y225605D01*
X-122337Y225277D01*
X-122534Y224883D01*
X-122692Y224227D01*
X-122731Y223637D01*
X-122652Y223046D01*
X-122534Y222652D01*
X-122298Y222259D01*
X-122022Y221996D01*
X-121747Y221865D01*
X-121471D01*
X-121195Y221996D01*
X-120959Y222193D01*
X-120762Y222456D01*
G01X-118991Y225802D02*
Y221865D01*
G01X-119896Y225802D02*
X-118085D01*
G01X-116235Y221865D02*
X-116550Y221931D01*
X-116825Y222193D01*
X-117062Y222587D01*
X-117219Y223046D01*
X-117298Y223571D01*
Y224096D01*
X-117219Y224621D01*
X-117062Y225080D01*
X-116825Y225474D01*
X-116550Y225736D01*
X-116235Y225802D01*
X-115920Y225736D01*
X-115644Y225474D01*
X-115408Y225080D01*
X-115251Y224621D01*
X-115172Y224096D01*
Y223571D01*
X-115251Y223046D01*
X-115408Y222587D01*
X-115644Y222193D01*
X-115920Y221931D01*
X-116235Y221865D01*
G01X-114266D02*
Y225802D01*
X-113282D01*
X-112967Y225605D01*
X-112770Y225343D01*
X-112692Y224818D01*
X-112770Y224293D01*
X-113007Y223965D01*
X-113282Y223768D01*
X-114266D01*
G01X-113282D02*
X-112692Y221865D01*
G01X-108479Y223177D02*
X-107455D01*
G01X-102455Y225802D02*
X-102770Y225671D01*
X-103007Y225343D01*
X-103164Y224949D01*
X-103282Y224424D01*
X-103322Y223834D01*
X-103282Y223243D01*
X-103164Y222718D01*
X-103007Y222324D01*
X-102770Y221996D01*
X-102455Y221865D01*
X-102140Y221996D01*
X-101904Y222324D01*
X-101747Y222718D01*
X-101629Y223243D01*
X-101589Y223834D01*
X-101629Y224424D01*
X-101747Y224949D01*
X-101904Y225343D01*
X-102140Y225671D01*
X-102455Y225802D01*
G01X-99700Y221734D02*
X-99778Y221799D01*
Y221931D01*
X-99700Y221996D01*
X-99621Y221931D01*
Y221799D01*
X-99700Y221734D01*
G01X-96944Y225802D02*
X-97259Y225671D01*
X-97495Y225343D01*
X-97652Y224949D01*
X-97770Y224424D01*
X-97810Y223834D01*
X-97770Y223243D01*
X-97652Y222718D01*
X-97495Y222324D01*
X-97259Y221996D01*
X-96944Y221865D01*
X-96629Y221996D01*
X-96392Y222324D01*
X-96235Y222718D01*
X-96117Y223243D01*
X-96078Y223834D01*
X-96117Y224424D01*
X-96235Y224949D01*
X-96392Y225343D01*
X-96629Y225671D01*
X-96944Y225802D01*
G01X-94188Y221865D02*
Y225802D01*
X-94660Y225015D01*
G01Y221865D02*
X-93715D01*
G01X-91432D02*
X-91156Y221931D01*
X-90841Y222128D01*
X-90644Y222456D01*
X-90566Y222915D01*
X-90644Y223374D01*
X-90881Y223768D01*
X-91235Y223965D01*
X-91629D01*
X-91865Y224096D01*
X-92062Y224424D01*
X-92140Y224883D01*
X-92022Y225343D01*
X-91747Y225671D01*
X-91432Y225802D01*
X-91117Y225671D01*
X-90841Y225343D01*
X-90723Y224883D01*
X-90802Y224424D01*
X-90999Y224096D01*
X-91235Y223965D01*
X-91629D01*
X-91983Y223768D01*
X-92219Y223374D01*
X-92298Y222915D01*
X-92219Y222456D01*
X-92022Y222128D01*
X-91707Y221931D01*
X-91432Y221865D01*
G01X-88676Y225802D02*
X-88991Y225671D01*
X-89227Y225343D01*
X-89385Y224949D01*
X-89503Y224424D01*
X-89542Y223834D01*
X-89503Y223243D01*
X-89385Y222718D01*
X-89227Y222324D01*
X-88991Y221996D01*
X-88676Y221865D01*
X-88361Y221996D01*
X-88125Y222324D01*
X-87967Y222718D01*
X-87849Y223243D01*
X-87810Y223834D01*
X-87849Y224424D01*
X-87967Y224949D01*
X-88125Y225343D01*
X-88361Y225671D01*
X-88676Y225802D01*
G01X-85920D02*
X-86235Y225671D01*
X-86471Y225343D01*
X-86629Y224949D01*
X-86747Y224424D01*
X-86786Y223834D01*
X-86747Y223243D01*
X-86629Y222718D01*
X-86471Y222324D01*
X-86235Y221996D01*
X-85920Y221865D01*
X-85605Y221996D01*
X-85369Y222324D01*
X-85211Y222718D01*
X-85093Y223243D01*
X-85054Y223834D01*
X-85093Y224424D01*
X-85211Y224949D01*
X-85369Y225343D01*
X-85605Y225671D01*
X-85920Y225802D01*
G01X-83164Y221865D02*
Y225802D01*
X-83636Y225015D01*
G01Y221865D02*
X-82692D01*
G01X-78676D02*
Y225802D01*
X-77652Y222521D01*
X-76629Y225802D01*
Y221865D01*
G01X-75920D02*
Y225802D01*
X-74896Y222521D01*
X-73873Y225802D01*
Y221865D01*
G01X-150172Y228295D02*
X-148440Y231183D01*
G01X-149306Y231708D02*
Y227771D01*
G01X-148440Y228295D02*
X-150172Y231183D01*
G01X-150487Y229739D02*
X-148125D01*
G01X-141865Y228951D02*
X-141550Y228624D01*
X-141195Y228427D01*
X-140880D01*
X-140566Y228624D01*
X-140329Y228951D01*
X-140211Y229411D01*
X-140290Y229870D01*
X-140487Y230264D01*
X-140841Y230526D01*
X-141314Y230658D01*
X-141589Y230920D01*
X-141707Y231379D01*
X-141628Y231839D01*
X-141432Y232167D01*
X-141156Y232364D01*
X-140880D01*
X-140605Y232232D01*
X-140369Y231904D01*
G01X-139148Y232364D02*
Y229542D01*
X-138991Y228951D01*
X-138676Y228558D01*
X-138282Y228427D01*
X-137888Y228558D01*
X-137573Y228951D01*
X-137416Y229542D01*
Y232364D01*
G01X-136314Y228427D02*
Y232364D01*
X-135329D01*
X-135014Y232167D01*
X-134818Y231904D01*
X-134739Y231379D01*
X-134818Y230854D01*
X-135054Y230526D01*
X-135329Y230330D01*
X-136314D01*
G01X-135329D02*
X-134739Y228427D01*
G01X-133518D02*
Y232364D01*
X-132022D01*
G01X-132574Y230461D02*
X-133518D01*
G01X-130999Y228427D02*
X-130014Y232364D01*
X-129030Y228427D01*
G01X-129385Y229805D02*
X-130644D01*
G01X-126392Y232036D02*
X-126629Y232232D01*
X-126904Y232364D01*
X-127219D01*
X-127573Y232167D01*
X-127849Y231839D01*
X-128046Y231445D01*
X-128203Y230789D01*
X-128243Y230198D01*
X-128164Y229608D01*
X-128046Y229214D01*
X-127810Y228820D01*
X-127534Y228558D01*
X-127259Y228427D01*
X-126983D01*
X-126707Y228558D01*
X-126471Y228755D01*
X-126274Y229017D01*
G01X-123715Y228427D02*
X-125290D01*
Y232364D01*
X-123715D01*
G01X-124345Y230461D02*
X-125290D01*
G01X-119503Y229739D02*
X-118479D01*
G01X-113479Y232364D02*
X-113794Y232232D01*
X-114030Y231904D01*
X-114188Y231511D01*
X-114306Y230986D01*
X-114345Y230395D01*
X-114306Y229805D01*
X-114188Y229280D01*
X-114030Y228886D01*
X-113794Y228558D01*
X-113479Y228427D01*
X-113164Y228558D01*
X-112928Y228886D01*
X-112770Y229280D01*
X-112652Y229805D01*
X-112613Y230395D01*
X-112652Y230986D01*
X-112770Y231511D01*
X-112928Y231904D01*
X-113164Y232232D01*
X-113479Y232364D01*
G01X-108991Y228427D02*
Y232364D01*
X-107967Y229083D01*
X-106943Y232364D01*
Y228427D01*
G01X-106235D02*
Y232364D01*
X-105211Y229083D01*
X-104188Y232364D01*
Y228427D01*
G54D12*
G01X-218754Y27807D02*
Y224847D01*
X-158755D01*
Y27807D01*
X-218754D01*
G01X512Y-151653D02*
Y-51653D01*
X496512D01*
Y-151653D01*
X512D01*
G01X11517Y-120403D02*
Y-107903D01*
X17407D01*
G01X15237Y-113945D02*
X11517D01*
G01X25002Y-107903D02*
X28722D01*
G01X26862D02*
Y-120403D01*
G01X25002D02*
X28722D01*
G01X40192Y-114154D02*
X43292D01*
Y-117904D01*
X42362Y-119154D01*
X41277Y-119987D01*
X39727Y-120403D01*
X38177Y-119987D01*
X37092Y-119154D01*
X36162Y-117904D01*
X35542Y-116445D01*
X35232Y-114778D01*
Y-113320D01*
X35542Y-112070D01*
X36162Y-110612D01*
X37092Y-109362D01*
X38022Y-108529D01*
X39262Y-107903D01*
X40347D01*
X41587Y-108320D01*
X42517Y-109154D01*
G01X48252Y-107903D02*
Y-116862D01*
X48872Y-118737D01*
X50112Y-119987D01*
X51662Y-120403D01*
X53212Y-119987D01*
X54452Y-118737D01*
X55072Y-116862D01*
Y-107903D01*
G01X60962Y-120403D02*
Y-107903D01*
X64837D01*
X66077Y-108529D01*
X66852Y-109362D01*
X67162Y-111029D01*
X66852Y-112695D01*
X65922Y-113737D01*
X64837Y-114362D01*
X60962D01*
G01X64837D02*
X67162Y-120403D01*
G01X79562D02*
X73362D01*
Y-107903D01*
X79562D01*
G01X77082Y-113945D02*
X73362D01*
G01X512Y-126653D02*
X496512D01*
G01X512Y-76653D02*
X496512D01*
G01X512Y-101653D02*
X496512D01*
G01X90412D02*
Y-151653D01*
G01X113817Y-120403D02*
Y-107903D01*
X119707D01*
G01X117537Y-113945D02*
X113817D01*
G01X127302Y-107903D02*
X131022D01*
G01X129162D02*
Y-120403D01*
G01X127302D02*
X131022D01*
G01X137997D02*
Y-107903D01*
X145127Y-120403D01*
Y-107903D01*
G01X152102D02*
X155822D01*
G01X153962D02*
Y-120403D01*
G01X152102D02*
X155822D01*
G01X163107Y-118737D02*
X164347Y-119779D01*
X165742Y-120403D01*
X166982D01*
X168222Y-119779D01*
X169152Y-118737D01*
X169617Y-117278D01*
X169307Y-115820D01*
X168532Y-114570D01*
X167137Y-113737D01*
X165277Y-113320D01*
X164192Y-112487D01*
X163727Y-111029D01*
X164037Y-109570D01*
X164812Y-108529D01*
X165897Y-107903D01*
X166982D01*
X168067Y-108320D01*
X168997Y-109362D01*
G01X175507Y-120403D02*
Y-107903D01*
G01X182017D02*
Y-120403D01*
G01Y-114154D02*
X175507D01*
G01X194262Y-120403D02*
X188062D01*
Y-107903D01*
X194262D01*
G01X191782Y-113945D02*
X188062D01*
G01X200152Y-120403D02*
Y-107903D01*
X203252D01*
X204492Y-108529D01*
X205422Y-109362D01*
X206197Y-110612D01*
X206817Y-112070D01*
X206972Y-114154D01*
X206817Y-116237D01*
X206197Y-117695D01*
X205422Y-118945D01*
X204492Y-119779D01*
X203252Y-120403D01*
X200152D01*
G01X211312Y-124570D02*
X220612D01*
G01X225107Y-118737D02*
X226347Y-119779D01*
X227742Y-120403D01*
X228982D01*
X230222Y-119779D01*
X231152Y-118737D01*
X231617Y-117278D01*
X231307Y-115820D01*
X230532Y-114570D01*
X229137Y-113737D01*
X227277Y-113320D01*
X226192Y-112487D01*
X225727Y-111029D01*
X226037Y-109570D01*
X226812Y-108529D01*
X227897Y-107903D01*
X228982D01*
X230067Y-108320D01*
X230997Y-109362D01*
G01X238902Y-107903D02*
X242622D01*
G01X240762D02*
Y-120403D01*
G01X238902D02*
X242622D01*
G01X250217Y-107903D02*
X256107D01*
X250217Y-120403D01*
X256107D01*
G01X268662D02*
X262462D01*
Y-107903D01*
X268662D01*
G01X266182Y-113945D02*
X262462D01*
G01X90102Y-70403D02*
Y-57903D01*
X93202D01*
X94442Y-58529D01*
X95372Y-59362D01*
X96147Y-60612D01*
X96767Y-62070D01*
X96922Y-64154D01*
X96767Y-66237D01*
X96147Y-67695D01*
X95372Y-68945D01*
X94442Y-69778D01*
X93202Y-70403D01*
X90102D01*
G01X102812D02*
Y-57903D01*
X106687D01*
X107927Y-58529D01*
X108702Y-59362D01*
X109012Y-61028D01*
X108702Y-62695D01*
X107772Y-63737D01*
X106687Y-64362D01*
X102812D01*
G01X106687D02*
X109012Y-70403D01*
G01X116452Y-57903D02*
X120172D01*
G01X118312D02*
Y-70403D01*
G01X116452D02*
X120172D01*
G01X127612Y-57903D02*
Y-70403D01*
X133812D01*
G01X140012Y-57903D02*
Y-70403D01*
X146212D01*
G01X171322Y-58945D02*
X170392Y-58320D01*
X169307Y-57903D01*
X168067D01*
X166672Y-58529D01*
X165587Y-59570D01*
X164812Y-60820D01*
X164192Y-62904D01*
X164037Y-64778D01*
X164347Y-66653D01*
X164812Y-67904D01*
X165742Y-69154D01*
X166827Y-69987D01*
X167912Y-70403D01*
X168997D01*
X170082Y-69987D01*
X171012Y-69362D01*
X171787Y-68529D01*
G01X177057Y-70403D02*
Y-57903D01*
G01X183567D02*
Y-70403D01*
G01Y-64154D02*
X177057D01*
G01X188837Y-70403D02*
X192712Y-57903D01*
X196587Y-70403D01*
G01X195192Y-66029D02*
X190232D01*
G01X202012Y-70403D02*
Y-57903D01*
X205887D01*
X207127Y-58529D01*
X207902Y-59362D01*
X208212Y-61028D01*
X207902Y-62695D01*
X206972Y-63737D01*
X205887Y-64362D01*
X202012D01*
G01X205887D02*
X208212Y-70403D01*
G01X217512Y-57903D02*
Y-70403D01*
G01X213947Y-57903D02*
X221077D01*
G01X229912Y-70820D02*
X229602Y-70612D01*
Y-70195D01*
X229912Y-69987D01*
X230222Y-70195D01*
Y-70612D01*
X229912Y-70820D01*
G01Y-65195D02*
X229602Y-64987D01*
Y-64570D01*
X229912Y-64362D01*
X230222Y-64570D01*
Y-64987D01*
X229912Y-65195D01*
G01X254712Y-57903D02*
Y-70403D01*
G01X251147Y-57903D02*
X258277D01*
G01X267112Y-70403D02*
X265872Y-70195D01*
X264787Y-69362D01*
X263857Y-68112D01*
X263237Y-66653D01*
X262927Y-64987D01*
Y-63320D01*
X263237Y-61653D01*
X263857Y-60195D01*
X264787Y-58945D01*
X265872Y-58112D01*
X267112Y-57903D01*
X268352Y-58112D01*
X269437Y-58945D01*
X270367Y-60195D01*
X270987Y-61653D01*
X271297Y-63320D01*
Y-64987D01*
X270987Y-66653D01*
X270367Y-68112D01*
X269437Y-69362D01*
X268352Y-70195D01*
X267112Y-70403D01*
G01X276412D02*
Y-57903D01*
X280132D01*
X281372Y-58529D01*
X282302Y-59987D01*
X282612Y-61653D01*
X282302Y-63320D01*
X281527Y-64570D01*
X280132Y-65195D01*
X276412D01*
G01X304312Y-57903D02*
Y-70403D01*
G01X302142Y-62070D02*
X306482D01*
G01X316712Y-70403D02*
X315782Y-70195D01*
X314852Y-69362D01*
X314232Y-67904D01*
X313922Y-66237D01*
X314232Y-64570D01*
X314852Y-63112D01*
X315782Y-62279D01*
X316712Y-62070D01*
X317642Y-62279D01*
X318572Y-63112D01*
X319192Y-64570D01*
X319347Y-66237D01*
X319192Y-67904D01*
X318572Y-69362D01*
X317642Y-70195D01*
X316712Y-70403D01*
G01X342752Y-63737D02*
X343372Y-63112D01*
X343837Y-62070D01*
X344147Y-60612D01*
X343837Y-59362D01*
X343217Y-58529D01*
X342132Y-57903D01*
X337947D01*
Y-70403D01*
X343062D01*
X344147Y-69570D01*
X344767Y-68320D01*
X345077Y-66862D01*
X344767Y-65404D01*
X343837Y-64154D01*
X342752Y-63737D01*
X337947D01*
G01X353912Y-70403D02*
X352672Y-70195D01*
X351587Y-69362D01*
X350657Y-68112D01*
X350037Y-66653D01*
X349727Y-64987D01*
Y-63320D01*
X350037Y-61653D01*
X350657Y-60195D01*
X351587Y-58945D01*
X352672Y-58112D01*
X353912Y-57903D01*
X355152Y-58112D01*
X356237Y-58945D01*
X357167Y-60195D01*
X357787Y-61653D01*
X358097Y-63320D01*
Y-64987D01*
X357787Y-66653D01*
X357167Y-68112D01*
X356237Y-69362D01*
X355152Y-70195D01*
X353912Y-70403D01*
G01X366312Y-57903D02*
Y-70403D01*
G01X362747Y-57903D02*
X369877D01*
G01X378712D02*
Y-70403D01*
G01X375147Y-57903D02*
X382277D01*
G01X391112Y-70403D02*
X389872Y-70195D01*
X388787Y-69362D01*
X387857Y-68112D01*
X387237Y-66653D01*
X386927Y-64987D01*
Y-63320D01*
X387237Y-61653D01*
X387857Y-60195D01*
X388787Y-58945D01*
X389872Y-58112D01*
X391112Y-57903D01*
X392352Y-58112D01*
X393437Y-58945D01*
X394367Y-60195D01*
X394987Y-61653D01*
X395297Y-63320D01*
Y-64987D01*
X394987Y-66653D01*
X394367Y-68112D01*
X393437Y-69362D01*
X392352Y-70195D01*
X391112Y-70403D01*
G01X399482D02*
Y-57903D01*
X403512Y-68320D01*
X407542Y-57903D01*
Y-70403D01*
G01X120637Y-95403D02*
X124512Y-82903D01*
X128387Y-95403D01*
G01X126992Y-91029D02*
X122032D01*
G01X133812Y-82903D02*
Y-95403D01*
X140012D01*
G01X146212Y-82903D02*
Y-95403D01*
X152412D01*
G01X170702Y-82903D02*
Y-91862D01*
X171322Y-93737D01*
X172562Y-94987D01*
X174112Y-95403D01*
X175662Y-94987D01*
X176902Y-93737D01*
X177522Y-91862D01*
Y-82903D01*
G01X182947Y-95403D02*
Y-82903D01*
X190077Y-95403D01*
Y-82903D01*
G01X197052D02*
X200772D01*
G01X198912D02*
Y-95403D01*
G01X197052D02*
X200772D01*
G01X211312Y-82903D02*
Y-95403D01*
G01X207747Y-82903D02*
X214877D01*
G01X220457Y-93737D02*
X221697Y-94778D01*
X223092Y-95403D01*
X224332D01*
X225572Y-94778D01*
X226502Y-93737D01*
X226967Y-92278D01*
X226657Y-90820D01*
X225882Y-89570D01*
X224487Y-88737D01*
X222627Y-88320D01*
X221542Y-87487D01*
X221077Y-86028D01*
X221387Y-84570D01*
X222162Y-83529D01*
X223247Y-82903D01*
X224332D01*
X225417Y-83320D01*
X226347Y-84362D01*
G01X244637Y-95403D02*
X248512Y-82903D01*
X252387Y-95403D01*
G01X250992Y-91029D02*
X246032D01*
G01X257812Y-95403D02*
Y-82903D01*
X261687D01*
X262927Y-83529D01*
X263702Y-84362D01*
X264012Y-86028D01*
X263702Y-87695D01*
X262772Y-88737D01*
X261687Y-89362D01*
X257812D01*
G01X261687D02*
X264012Y-95403D01*
G01X276412D02*
X270212D01*
Y-82903D01*
X276412D01*
G01X273932Y-88945D02*
X270212D01*
G01X296252Y-82903D02*
X299972D01*
G01X298112D02*
Y-95403D01*
G01X296252D02*
X299972D01*
G01X306947D02*
Y-82903D01*
X314077Y-95403D01*
Y-82903D01*
G01X331282Y-95403D02*
Y-82903D01*
X335312Y-93320D01*
X339342Y-82903D01*
Y-95403D01*
G01X345852Y-82903D02*
X349572D01*
G01X347712D02*
Y-95403D01*
G01X345852D02*
X349572D01*
G01X357012Y-82903D02*
Y-95403D01*
X363212D01*
G01X369257Y-93737D02*
X370497Y-94778D01*
X371892Y-95403D01*
X373132D01*
X374372Y-94778D01*
X375302Y-93737D01*
X375767Y-92278D01*
X375457Y-90820D01*
X374682Y-89570D01*
X373287Y-88737D01*
X371427Y-88320D01*
X370342Y-87487D01*
X369877Y-86028D01*
X370187Y-84570D01*
X370962Y-83529D01*
X372047Y-82903D01*
X373132D01*
X374217Y-83320D01*
X375147Y-84362D01*
G01X160162Y-145403D02*
Y-132903D01*
X158302Y-135403D01*
G01Y-145403D02*
X162022D01*
G01X169152Y-143529D02*
X170082Y-144570D01*
X171167Y-145195D01*
X172562Y-145403D01*
X173957Y-144987D01*
X175042Y-144154D01*
X175817Y-142695D01*
X175972Y-141029D01*
X175662Y-139362D01*
X174887Y-138320D01*
X173802Y-137487D01*
X172717Y-137279D01*
X171632Y-137487D01*
X170237Y-138320D01*
X170702Y-132903D01*
X174887D01*
G01X184962Y-145820D02*
X184652Y-145612D01*
Y-145195D01*
X184962Y-144987D01*
X185272Y-145195D01*
Y-145612D01*
X184962Y-145820D01*
G01X197052Y-145403D02*
X197362Y-142695D01*
X197827Y-140404D01*
X198447Y-138320D01*
X199222Y-136029D01*
X200462Y-132903D01*
X194262D01*
G01X211622Y-145403D02*
Y-132903D01*
X205887Y-141862D01*
X213637D01*
G01X222162Y-145403D02*
X223247Y-145195D01*
X224487Y-144570D01*
X225262Y-143529D01*
X225572Y-142070D01*
X225262Y-140612D01*
X224332Y-139362D01*
X222937Y-138737D01*
X221387D01*
X220457Y-138320D01*
X219682Y-137279D01*
X219372Y-135820D01*
X219837Y-134362D01*
X220922Y-133320D01*
X222162Y-132903D01*
X223402Y-133320D01*
X224487Y-134362D01*
X224952Y-135820D01*
X224642Y-137279D01*
X223867Y-138320D01*
X222937Y-138737D01*
X221387D01*
X219992Y-139362D01*
X219062Y-140612D01*
X218752Y-142070D01*
X219062Y-143529D01*
X219837Y-144570D01*
X221077Y-145195D01*
X222162Y-145403D01*
G01X291912Y-101653D02*
Y-151653D01*
G01X321362Y-145403D02*
Y-132903D01*
X325082D01*
X326322Y-133529D01*
X327252Y-134987D01*
X327562Y-136653D01*
X327252Y-138320D01*
X326477Y-139570D01*
X325082Y-140195D01*
X321362D01*
G01X333762Y-132903D02*
Y-145403D01*
X339962D01*
G01X345387D02*
X349262Y-132903D01*
X353137Y-145403D01*
G01X351742Y-141029D02*
X346782D01*
G01X361662Y-132903D02*
Y-145403D01*
G01X358097Y-132903D02*
X365227D01*
G01X377162Y-145403D02*
X370962D01*
Y-132903D01*
X377162D01*
G01X374682Y-138945D02*
X370962D01*
G01X383052Y-145403D02*
Y-132903D01*
X386152D01*
X387392Y-133529D01*
X388322Y-134362D01*
X389097Y-135612D01*
X389717Y-137070D01*
X389872Y-139154D01*
X389717Y-141237D01*
X389097Y-142695D01*
X388322Y-143945D01*
X387392Y-144778D01*
X386152Y-145403D01*
X383052D01*
G01X321362Y-120403D02*
Y-107903D01*
X325082D01*
X326322Y-108529D01*
X327252Y-109987D01*
X327562Y-111653D01*
X327252Y-113320D01*
X326477Y-114570D01*
X325082Y-115195D01*
X321362D01*
G01X333762Y-107903D02*
Y-120403D01*
X339962D01*
G01X345387D02*
X349262Y-107903D01*
X353137Y-120403D01*
G01X351742Y-116029D02*
X346782D01*
G01X361662Y-107903D02*
Y-120403D01*
G01X358097Y-107903D02*
X365227D01*
G01X377162Y-120403D02*
X370962D01*
Y-107903D01*
X377162D01*
G01X374682Y-113945D02*
X370962D01*
G01X383052Y-120403D02*
Y-107903D01*
X386152D01*
X387392Y-108529D01*
X388322Y-109362D01*
X389097Y-110612D01*
X389717Y-112070D01*
X389872Y-114154D01*
X389717Y-116237D01*
X389097Y-117695D01*
X388322Y-118945D01*
X387392Y-119779D01*
X386152Y-120403D01*
X383052D01*
G01X419012Y-101653D02*
Y-151653D01*
G01X445362Y-120403D02*
X444122Y-120195D01*
X443037Y-119362D01*
X442107Y-118112D01*
X441487Y-116653D01*
X441177Y-114987D01*
Y-113320D01*
X441487Y-111653D01*
X442107Y-110195D01*
X443037Y-108945D01*
X444122Y-108112D01*
X445362Y-107903D01*
X446602Y-108112D01*
X447687Y-108945D01*
X448617Y-110195D01*
X449237Y-111653D01*
X449547Y-113320D01*
Y-114987D01*
X449237Y-116653D01*
X448617Y-118112D01*
X447687Y-119362D01*
X446602Y-120195D01*
X445362Y-120403D01*
G01X446602Y-117070D02*
X448462Y-120403D01*
G01X457762Y-107903D02*
Y-120403D01*
G01X454197Y-107903D02*
X461327D01*
G01X470162Y-120403D02*
Y-114778D01*
X467062Y-107903D01*
G01X473262D02*
X470162Y-114778D01*
G01X451562Y-145403D02*
Y-132903D01*
X449702Y-135403D01*
G01Y-145403D02*
X453422D01*
G01X461017Y-140195D02*
X462102Y-138737D01*
X463032Y-137904D01*
X464272Y-137487D01*
X465357Y-137904D01*
X466132Y-138737D01*
X466752Y-139987D01*
X466907Y-141445D01*
X466752Y-142695D01*
X466132Y-143945D01*
X465202Y-144987D01*
X464117Y-145403D01*
X462877Y-144987D01*
X461792Y-143737D01*
X461172Y-141862D01*
X461017Y-139778D01*
X461327Y-137070D01*
X461792Y-135612D01*
X462567Y-134154D01*
X463652Y-133112D01*
X464737Y-132903D01*
X465822Y-133320D01*
X466597Y-134362D01*
M02*
