G04 ================== begin FILE IDENTIFICATION RECORD ==================*
G04 Layout Name:  PROIECT 1.brd*
G04 Film Name:    SMTOP*
G04 File Format:  Gerber RS274X*
G04 File Origin:  Cadence Allegro 17.2-S025*
G04 Origin Date:  Sun Dec 14 13:23:40 2025*
G04 *
G04 Layer:  VIA CLASS/SOLDERMASK_TOP*
G04 Layer:  PIN/SOLDERMASK_TOP*
G04 Layer:  PACKAGE GEOMETRY/SOLDERMASK_TOP*
G04 Layer:  DRC ERROR CLASS/SOLDERMASK_TOP*
G04 Layer:  BOARD GEOMETRY/SOLDERMASK_TOP*
G04 *
G04 Offset:    (0.000 0.000)*
G04 Mirror:    No*
G04 Mode:      Positive*
G04 Rotation:  0*
G04 FullContactRelief:  No*
G04 UndefLineWidth:     4.000*
G04 ================== end FILE IDENTIFICATION RECORD ====================*
%FSLAX25Y25*MOIN*%
%IR0*IPPOS*OFA0.00000B0.00000*MIA0B0*SFA1.00000B1.00000*%
%ADD10R,.13X.09*%
%ADD19R,.09X.07*%
%ADD14R,.046X.06*%
%ADD17R,.07X.09*%
%ADD16R,.06X.046*%
%ADD12C,.08*%
%ADD15C,.038*%
%ADD18R,.058X.086*%
%ADD13R,.06X.06*%
%ADD11R,.086X.058*%
%LPD*%
G75*
G54D10*
X14961Y11925D03*
Y24925D03*
X15591Y69642D03*
X15433Y97594D03*
Y110594D03*
X15591Y82642D03*
X143386Y31177D03*
Y44177D03*
G54D11*
X15157Y47480D03*
Y55380D03*
X34488Y113583D03*
Y121483D03*
G54D12*
X20000Y137480D03*
X137480Y20000D03*
G54D13*
X39094Y15970D03*
X35039Y47033D03*
X39094Y24370D03*
X38465Y68740D03*
Y77140D03*
X35039Y55433D03*
X47441Y133175D03*
Y141575D03*
X82913Y15970D03*
X58110D03*
X82913Y24370D03*
X58110D03*
X81364Y65472D03*
X78347Y133175D03*
X62480D03*
X78347Y141575D03*
X62480D03*
X105354Y15970D03*
Y24370D03*
X98976Y74803D03*
X89764Y65472D03*
X100906Y104356D03*
X98976Y83203D03*
X100906Y112756D03*
X113976Y139921D03*
Y148321D03*
G54D14*
X53628Y46919D03*
X49528Y38819D03*
X57728D03*
X78116Y45935D03*
X74016Y37835D03*
X82216D03*
X100281Y46013D03*
X96181Y37913D03*
X104381D03*
X127092Y139754D03*
X122992Y131654D03*
X131192D03*
G54D15*
X49528Y31732D03*
X52165Y98307D03*
X73701Y31732D03*
X78110Y53583D03*
X64775Y90602D03*
X96221Y31732D03*
X100315Y53740D03*
X90669Y90394D03*
X106850Y83189D03*
X114173Y131654D03*
X94252Y125315D03*
X141772Y58701D03*
Y76457D03*
X119055Y104651D03*
X140315Y108751D03*
X147688Y66901D03*
G54D16*
X49813Y86502D03*
X50089Y110832D03*
X58189Y106732D03*
X82480Y106850D03*
X57913Y82402D03*
Y90602D03*
X74420Y86305D03*
X82520Y82205D03*
Y90405D03*
X58189Y114932D03*
X74380Y110950D03*
X82480Y115050D03*
X125404Y62801D03*
X133504Y58701D03*
Y66901D03*
X125404Y104651D03*
X133504Y100551D03*
Y108751D03*
G54D17*
X36287Y95742D03*
X63858Y65472D03*
X112723Y95230D03*
G54D18*
X102205Y136811D03*
X94305D03*
X132929Y76457D03*
X125029D03*
X125979Y90039D03*
X133879D03*
G54D19*
X146732Y146850D03*
M02*
