G04 ================== begin FILE IDENTIFICATION RECORD ==================*
G04 Layout Name:  PROIECT 1.brd*
G04 Film Name:    SPTOP*
G04 File Format:  Gerber RS274X*
G04 File Origin:  Cadence Allegro 17.2-S025*
G04 Origin Date:  Sun Dec 14 13:23:40 2025*
G04 *
G04 Layer:  VIA CLASS/PASTEMASK_TOP*
G04 Layer:  PIN/PASTEMASK_TOP*
G04 Layer:  PACKAGE GEOMETRY/PASTEMASK_TOP*
G04 Layer:  DRC ERROR CLASS/PASTEMASK_TOP*
G04 *
G04 Offset:    (0.000 0.000)*
G04 Mirror:    No*
G04 Mode:      Positive*
G04 Rotation:  0*
G04 FullContactRelief:  No*
G04 UndefLineWidth:     4.000*
G04 ================== end FILE IDENTIFICATION RECORD ====================*
%FSLAX25Y25*MOIN*%
%IR0*IPPOS*OFA0.00000B0.00000*MIA0B0*SFA1.00000B1.00000*%
%ADD13R,.033X.045*%
%ADD14R,.045X.033*%
%ADD11C,.04*%
%ADD15R,.044X.069*%
%ADD10R,.069X.044*%
%ADD12R,.045X.045*%
%LPD*%
G75*
G54D10*
X15157Y47480D03*
Y55380D03*
X34488Y113583D03*
Y121483D03*
G54D11*
X20000Y137480D03*
X137480Y20000D03*
G54D12*
X39094Y15970D03*
X35039Y47033D03*
X39094Y24370D03*
X38465Y68740D03*
Y77140D03*
X35039Y55433D03*
X47441Y133175D03*
Y141575D03*
X82913Y15970D03*
X58110D03*
X82913Y24370D03*
X58110D03*
X81364Y65472D03*
X78347Y133175D03*
X62480D03*
X78347Y141575D03*
X62480D03*
X105354Y15970D03*
Y24370D03*
X98976Y74803D03*
X89764Y65472D03*
X100906Y104356D03*
X98976Y83203D03*
X100906Y112756D03*
X113976Y139921D03*
Y148321D03*
G54D13*
X53628Y46919D03*
X49528Y38819D03*
X57728D03*
X78116Y45935D03*
X74016Y37835D03*
X82216D03*
X100281Y46013D03*
X96181Y37913D03*
X104381D03*
X127092Y139754D03*
X122992Y131654D03*
X131192D03*
G54D14*
X49813Y86502D03*
X50089Y110832D03*
X58189Y106732D03*
X82480Y106850D03*
X57913Y82402D03*
Y90602D03*
X74420Y86305D03*
X82520Y82205D03*
Y90405D03*
X58189Y114932D03*
X74380Y110950D03*
X82480Y115050D03*
X125404Y62801D03*
X133504Y58701D03*
Y66901D03*
X125404Y104651D03*
X133504Y100551D03*
Y108751D03*
G54D15*
X102205Y136811D03*
X94305D03*
X132929Y76457D03*
X125029D03*
X125979Y90039D03*
X133879D03*
M02*
