G04 ================== begin FILE IDENTIFICATION RECORD ==================*
G04 Layout Name:  PROIECT 1.brd*
G04 Film Name:    TOP*
G04 File Format:  Gerber RS274X*
G04 File Origin:  Cadence Allegro 17.2-S025*
G04 Origin Date:  Sun Dec 14 13:23:40 2025*
G04 *
G04 Layer:  ETCH/TOP*
G04 Layer:  PIN/TOP*
G04 Layer:  VIA CLASS/TOP*
G04 *
G04 Offset:    (0.000 0.000)*
G04 Mirror:    No*
G04 Mode:      Positive*
G04 Rotation:  0*
G04 FullContactRelief:  No*
G04 UndefLineWidth:     4.000*
G04 ================== end FILE IDENTIFICATION RECORD ====================*
%FSLAX25Y25*MOIN*%
%IR0*IPPOS*OFA0.00000B0.00000*MIA0B0*SFA1.00000B1.00000*%
%ADD10R,.12X.08*%
%ADD19R,.08X.06*%
%ADD14R,.036X.05*%
%ADD17R,.06X.08*%
%ADD16R,.05X.036*%
%ADD12C,.04*%
%ADD15C,.028*%
%ADD18R,.048X.076*%
%ADD13R,.05X.05*%
%ADD11R,.076X.048*%
%ADD20C,.016*%
%ADD21C,.018*%
%ADD23C,.078744*%
%ADD22C,.078746*%
G75*
%LPD*%
G75*
G36*
G01X3937Y3937D02*
Y153543D01*
X153543D01*
Y3937D01*
X3937D01*
G37*
%LPC*%
G75*
G36*
G01X136886Y27177D02*
Y35177D01*
G02X137386Y35677I500J0D01*
G01X149386D01*
G02X149886Y35177I0J-500D01*
G01Y27177D01*
G02X149386Y26677I-500J0D01*
G01X137386D01*
G02X136886Y27177I0J500D01*
G37*
G36*
G01X97905Y110256D02*
Y115256D01*
G02X98406Y115756I500J0D01*
G01X103406D01*
G02X103906Y115256I0J-500D01*
G01Y110256D01*
G02X103406Y109756I-500J0D01*
G01X98406D01*
G02X97905Y110256I0J500D01*
G37*
G36*
G01X86764Y62972D02*
Y67972D01*
G02X87264Y68473I500J0D01*
G01X92264D01*
G02X92764Y67972I0J-500D01*
G01Y62972D01*
G02X92264Y62472I-500J0D01*
G01X87264D01*
G02X86764Y62972I0J500D01*
G37*
G36*
G01X30188Y111183D02*
Y115983D01*
G02X30688Y116483I500J0D01*
G01X38288D01*
G02X38788Y115983I0J-500D01*
G01Y111183D01*
G02X38288Y110683I-500J0D01*
G01X30688D01*
G02X30188Y111183I0J500D01*
G37*
G36*
G01X32039Y52933D02*
Y57933D01*
G02X32539Y58433I500J0D01*
G01X37539D01*
G02X38040Y57933I0J-500D01*
G01Y52933D01*
G02X37539Y52433I-500J0D01*
G01X32539D01*
G02X32039Y52933I0J500D01*
G37*
G36*
G01X35464Y66240D02*
Y71240D01*
G02X35965Y71740I500J0D01*
G01X40965D01*
G02X41465Y71240I0J-500D01*
G01Y66240D01*
G02X40965Y65740I-500J0D01*
G01X35965D01*
G02X35464Y66240I0J500D01*
G37*
G36*
G01X8933Y93594D02*
Y101595D01*
G02X9433Y102095I500J0D01*
G01X21433D01*
G02X21933Y101595I0J-500D01*
G01Y93594D01*
G02X21433Y93094I-500J0D01*
G01X9433D01*
G02X8933Y93594I0J500D01*
G37*
G36*
G01X10857Y52980D02*
Y57780D01*
G02X11358Y58280I500J0D01*
G01X18958D01*
G02X19458Y57780I0J-500D01*
G01Y52980D01*
G02X18958Y52480I-500J0D01*
G01X11358D01*
G02X10857Y52980I0J500D01*
G37*
G36*
G01X9090Y65642D02*
Y73642D01*
G02X9591Y74142I500J0D01*
G01X21591D01*
G02X22091Y73642I0J-500D01*
G01Y65642D01*
G02X21591Y65142I-500J0D01*
G01X9591D01*
G02X9090Y65642I0J500D01*
G37*
G36*
G01X8460Y7925D02*
Y15925D01*
G02X8961Y16425I500J0D01*
G01X20961D01*
G02X21461Y15925I0J-500D01*
G01Y7925D01*
G02X20961Y7425I-500J0D01*
G01X8961D01*
G02X8460Y7925I0J500D01*
G37*
G36*
G01X39688Y119082D02*
G02X38288Y117682I-1400J0D01*
G01X30688D01*
G02X29288Y119083I0J1400D01*
G01Y123883D01*
G02X30688Y125283I1400J0D01*
G01X38288D01*
G02X39688Y123883I0J-1400D01*
G01Y123683D01*
X42934D01*
X45241Y125990D01*
Y129275D01*
X44941D01*
G02X43541Y130675I0J1400D01*
G01Y135675D01*
G02X44941Y137075I1400J0D01*
G01X49941D01*
G02X51341Y135675I0J-1400D01*
G01Y130675D01*
G02X49941Y129275I-1400J0D01*
G01X49641D01*
Y124167D01*
X44756Y119282D01*
X39688D01*
Y119082D01*
G37*
G36*
G01X102877Y80703D02*
G02X101476Y79303I-1400J0D01*
G01X96476D01*
G02X95076Y80703I0J1400D01*
G01Y85703D01*
G02X96476Y87103I1400J0D01*
G01X96776D01*
Y91108D01*
X98705Y93037D01*
Y100456D01*
X98406D01*
G02X97005Y101856I0J1400D01*
G01Y106856D01*
G02X98406Y108256I1400J0D01*
G01X103406D01*
G02X104806Y106856I0J-1400D01*
G01Y101856D01*
G02X103406Y100456I-1400J0D01*
G01X103106D01*
Y91215D01*
X101177Y89286D01*
Y87103D01*
X101476D01*
G02X102877Y85703I0J-1400D01*
G01Y85403D01*
X104318D01*
X104332Y85389D01*
X105117D01*
X105170Y85429D01*
G02X105118Y80989I1680J-2240D01*
G01X102877D01*
Y80703D01*
G37*
G36*
G01X35877Y28650D02*
X34286Y30241D01*
X25586D01*
X12957Y42869D01*
Y43680D01*
X11358D01*
G02X9957Y45080I0J1400D01*
G01Y49880D01*
G02X11358Y51280I1400J0D01*
G01X18958D01*
G02X20358Y49880I0J-1400D01*
G01Y45080D01*
G02X18958Y43680I-1400J0D01*
G01X18852D01*
G03X18711Y43339I0J-200D01*
G01X27408Y34641D01*
X36108D01*
X41295Y29455D01*
Y28270D01*
X41594D01*
G02X42995Y26870I0J-1400D01*
G01Y21870D01*
G02X41594Y20470I-1400J0D01*
G01X36594D01*
G02X35194Y21870I0J1400D01*
G01Y26870D01*
G02X35816Y28034I1400J0D01*
G03X35877Y28650I-222J333D01*
G37*
G36*
G01X135329Y71257D02*
X122629D01*
G02X121228Y72657I0J1400D01*
G01Y74256D01*
X117435D01*
X113351Y78341D01*
Y83459D01*
X110516Y86293D01*
Y89830D01*
X109723D01*
G02X108323Y91230I0J1400D01*
G01Y99230D01*
G02X109723Y100630I1400J0D01*
G01X115723D01*
G02X117124Y99230I0J-1400D01*
G01Y91230D01*
G02X115723Y89830I-1400J0D01*
G01X114924D01*
Y89014D01*
X114917Y89008D01*
Y88116D01*
X115551Y87482D01*
X120309Y92240D01*
X122179D01*
Y93839D01*
G02X123579Y95240I1400J0D01*
G01X136279D01*
G02X137679Y93839I0J-1400D01*
G01Y92240D01*
X140309D01*
X140753Y92683D01*
Y98351D01*
X137352D01*
X137302Y98226D01*
G02X136004Y97351I-1298J525D01*
G01X131004D01*
G02X129604Y98751I0J1400D01*
G01Y101606D01*
G03X128915Y101883I-400J0D01*
G02X127904Y101451I-1011J969D01*
G01X122904D01*
G02X121645Y102239I0J1400D01*
G01X121590Y102351D01*
X120653D01*
X120603Y102318D01*
G02Y106985I-1548J2333D01*
G01X120653Y106951D01*
X121590D01*
X121645Y107064D01*
G02X122904Y107851I1259J-613D01*
G01X127904D01*
G02X128915Y107420I0J-1400D01*
G03X129604Y107697I289J277D01*
G01Y110551D01*
G02X131004Y111951I1400J0D01*
G01X136004D01*
G02X137302Y111076I0J-1400D01*
G01X137352Y110951D01*
X138583D01*
G02Y106551I1732J-2200D01*
G01X137352D01*
X137302Y106426D01*
G02X136004Y105551I-1298J525D01*
G01X131004D01*
G02X129993Y105982I0J1400D01*
G03X129304Y105706I-289J-277D01*
G01Y103597D01*
G03X129993Y103320I400J0D01*
G02X131004Y103751I1011J-969D01*
G01X136004D01*
G02X137302Y102876I0J-1400D01*
G01X137352Y102751D01*
X142041D01*
X144532Y105242D01*
Y142450D01*
X142732D01*
G02X141332Y143850I0J1400D01*
G01Y144650D01*
X130208D01*
X129598Y144040D01*
G03X129662Y143423I283J-283D01*
G02X130292Y142254I-769J-1170D01*
G01Y137254D01*
G02X129861Y136242I-1400J0D01*
G03X130138Y135554I277J-289D01*
G01X132992D01*
G02X134392Y134154I0J-1400D01*
G01Y129154D01*
G02X133517Y127856I-1400J0D01*
G01X133392Y127805D01*
Y125531D01*
X130504Y122642D01*
X103656D01*
X100004Y126293D01*
Y131611D01*
X96605D01*
Y127315D01*
X96552Y127262D01*
Y126913D01*
X96586Y126863D01*
G02X91952Y126912I-2334J-1548D01*
G01Y129168D01*
X92004Y129220D01*
Y131414D01*
G03X91817Y131614I-200J0D01*
G02X90504Y133011I88J1397D01*
G01Y134511D01*
X87630D01*
X82866Y139275D01*
X82247D01*
Y139075D01*
G02X80847Y137675I-1400J0D01*
G01X75846D01*
G02X74446Y139075I0J1400D01*
G01Y139275D01*
X66380D01*
Y139075D01*
G02X64980Y137675I-1400J0D01*
G01X59980D01*
G02X58580Y139075I0J1400D01*
G01Y139275D01*
X51341D01*
Y139075D01*
G02X49941Y137675I-1400J0D01*
G01X44941D01*
G02X43541Y139075I0J1400D01*
G01Y139275D01*
X39339D01*
X17733Y117669D01*
Y115995D01*
X21433D01*
G02X22833Y114594I0J-1400D01*
G01Y106594D01*
G02X21433Y105194I-1400J0D01*
G01X9433D01*
G02X8033Y106594I0J1400D01*
G01Y114594D01*
G02X9433Y115995I1400J0D01*
G01X13133D01*
Y119575D01*
X37433Y143875D01*
X43541D01*
Y144075D01*
G02X44941Y145475I1400J0D01*
G01X49941D01*
G02X51341Y144075I0J-1400D01*
G01Y143875D01*
X58580D01*
Y144075D01*
G02X59980Y145475I1400J0D01*
G01X64980D01*
G02X66380Y144075I0J-1400D01*
G01Y143875D01*
X74446D01*
Y144075D01*
G02X75846Y145475I1400J0D01*
G01X80847D01*
G02X82247Y144075I0J-1400D01*
G01Y143875D01*
X84772D01*
X89536Y139111D01*
X90504D01*
Y140611D01*
G02X91905Y142011I1400J0D01*
G01X104605D01*
G02X106005Y140611I0J-1400D01*
G01Y133011D01*
G02X104605Y131611I-1400J0D01*
G03X104405Y131411I0J-200D01*
G01Y128116D01*
X105478Y127043D01*
X128681D01*
X128992Y127354D01*
Y127805D01*
X128867Y127856D01*
G02X127992Y129154I525J1298D01*
G01Y134154D01*
G02X128423Y135164I1400J0D01*
G03X128147Y135853I-277J289D01*
G01X126038D01*
G03X125761Y135164I0J-400D01*
G02X126192Y134154I-969J-1011D01*
G01Y129154D01*
G02X124792Y127753I-1400J0D01*
G01X121192D01*
G02X119792Y129154I0J1400D01*
G01Y129453D01*
X115905D01*
G02X111776Y133101I-1732J2200D01*
G01Y136021D01*
X111476D01*
G02X110076Y137421I0J1400D01*
G01Y142421D01*
G02X111476Y143822I1400J0D01*
G01X116476D01*
G02X117877Y142421I0J-1400D01*
G01Y137421D01*
G02X116476Y136021I-1400J0D01*
G01X116177D01*
Y133854D01*
X119792D01*
Y134154D01*
G02X121192Y135554I1400J0D01*
G01X124047D01*
G03X124323Y136242I0J400D01*
G02X123892Y137254I969J1011D01*
G01Y142254D01*
G02X124523Y143423I1400J0D01*
G03X124586Y144040I-220J334D01*
G01X122505Y146121D01*
X117877D01*
Y145821D01*
G02X116476Y144421I-1400J0D01*
G01X111476D01*
G02X110076Y145821I0J1400D01*
G01Y150821D01*
G02X111476Y152222I1400J0D01*
G01X116476D01*
G02X117877Y150821I0J-1400D01*
G01Y150522D01*
X124328D01*
X127092Y147757D01*
X128386Y149051D01*
X141332D01*
Y149850D01*
G02X142732Y151251I1400J0D01*
G01X150732D01*
G02X152132Y149850I0J-1400D01*
G01Y143850D01*
G02X150732Y142450I-1400J0D01*
G01X148932D01*
Y103419D01*
X145153Y99640D01*
Y90860D01*
X142132Y87839D01*
X137679D01*
Y86239D01*
G02X136279Y84839I-1400J0D01*
G01X123579D01*
G02X122179Y86239I0J1400D01*
G01Y86921D01*
G03X121496Y87203I-400J0D01*
G01X117751Y83459D01*
Y80163D01*
X119258Y78657D01*
X121228D01*
Y80257D01*
G02X122629Y81657I1400J0D01*
G01X135329D01*
G02X136729Y80257I0J-1400D01*
G01Y78657D01*
X140040D01*
G02Y74256I1732J-2200D01*
G01X136729D01*
Y72657D01*
G02X135329Y71257I-1400J0D01*
G37*
G36*
G01X66858Y60072D02*
X60858D01*
G02X59458Y61472I0J1400D01*
G01Y69472D01*
G02X60858Y70873I1400J0D01*
G01X66858D01*
G02X68258Y69472I0J-1400D01*
G01Y67673D01*
X77464D01*
Y67972D01*
G02X78864Y69373I1400J0D01*
G01X79164D01*
Y74086D01*
X80320Y75242D01*
Y79004D01*
X80020D01*
G02X78620Y80405I0J1400D01*
G01Y83259D01*
G03X77931Y83536I-400J0D01*
G02X76920Y83104I-1011J969D01*
G01X71920D01*
G02X70520Y84505I0J1400D01*
G01Y88105D01*
G02X71920Y89505I1400J0D01*
G01X72220D01*
Y97930D01*
X72180Y97969D01*
Y107750D01*
X71880D01*
G02X70582Y108625I0J1400D01*
G01X70532Y108750D01*
X69421D01*
X65203Y104532D01*
X62038D01*
X61987Y104407D01*
G02X60689Y103532I-1298J525D01*
G01X55689D01*
G02X54289Y104932I0J1400D01*
G01Y107787D01*
G03X53600Y108064I-400J0D01*
G02X52589Y107632I-1011J969D01*
G01X47589D01*
G02X47108Y107717I0J1400D01*
G03X46570Y107342I-137J-376D01*
G01Y100507D01*
X50433D01*
G02Y96107I1732J-2200D01*
G01X46570D01*
Y90069D01*
G03X47046Y89676I400J0D01*
G02X47313Y89702I267J-1374D01*
G01X52313D01*
G02X53324Y89270I0J-1400D01*
G03X54013Y89547I289J277D01*
G01Y92402D01*
G02X55413Y93802I1400J0D01*
G01X60413D01*
G02X61711Y92927I0J-1400D01*
G01X61762Y92802D01*
X63043D01*
G02Y88401I1732J-2200D01*
G01X61762D01*
X61711Y88276D01*
G02X60413Y87401I-1298J525D01*
G01X55413D01*
G02X54402Y87833I0J1400D01*
G03X53714Y87556I-289J-277D01*
G01Y85447D01*
G03X54402Y85170I400J0D01*
G02X55413Y85602I1011J-969D01*
G01X60413D01*
G02X61814Y84202I0J-1400D01*
G01Y80602D01*
G02X60413Y79201I-1400J0D01*
G01X60114D01*
Y77489D01*
X57565Y74940D01*
X42365D01*
Y74640D01*
G02X40965Y73240I-1400J0D01*
G01X35965D01*
G02X34564Y74640I0J1400D01*
G01Y74940D01*
X30177D01*
X24675Y80442D01*
X22991D01*
Y78642D01*
G02X21591Y77242I-1400J0D01*
G01X9591D01*
G02X8190Y78642I0J1400D01*
G01Y86642D01*
G02X9591Y88042I1400J0D01*
G01X21591D01*
G02X22991Y86642I0J-1400D01*
G01Y84842D01*
X26498D01*
X32000Y79340D01*
X34564D01*
Y79640D01*
G02X35965Y81040I1400J0D01*
G01X40965D01*
G02X42365Y79640I0J-1400D01*
G01Y79340D01*
X53833D01*
G03X54184Y79932I0J400D01*
G02X54013Y80602I1230J670D01*
G01Y83456D01*
G03X53324Y83733I-400J0D01*
G02X52313Y83301I-1011J969D01*
G01X47313D01*
G02X46015Y84176I0J1400D01*
G01X45965Y84301D01*
X45102D01*
X43459Y85945D01*
X37669D01*
X34087Y89527D01*
Y90342D01*
X33287D01*
G02X31887Y91742I0J1400D01*
G01Y99742D01*
G02X33287Y101142I1400J0D01*
G01X39287D01*
G02X40688Y99742I0J-1400D01*
G01Y91742D01*
G02X40453Y90967I-1400J0D01*
G03X40786Y90345I333J-222D01*
G01X42170D01*
Y109825D01*
X45378Y113032D01*
X46240D01*
X46291Y113158D01*
G02X47589Y114032I1298J-525D01*
G01X52589D01*
G02X53600Y113601I0J-1400D01*
G03X54289Y113878I289J277D01*
G01Y116732D01*
G02X55689Y118133I1400J0D01*
G01X55989D01*
Y125995D01*
X59053Y129059D01*
G03X59039Y129638I-283J283D01*
G02X58580Y130675I941J1037D01*
G01Y135675D01*
G02X59980Y137075I1400J0D01*
G01X64980D01*
G02X66380Y135675I0J-1400D01*
G01Y130675D01*
G02X64980Y129275I-1400J0D01*
G01X64680D01*
Y128463D01*
X60389Y124172D01*
Y118133D01*
X60689D01*
G02X62089Y116732I0J-1400D01*
G01Y113132D01*
G02X60689Y111732I-1400J0D01*
G01X55689D01*
G02X54678Y112164I0J1400D01*
G03X53989Y111887I-289J-277D01*
G01Y109778D01*
G03X54678Y109501I400J0D01*
G02X55689Y109933I1011J-969D01*
G01X60689D01*
G02X61987Y109058I0J-1400D01*
G01X62038Y108933D01*
X63380D01*
X67598Y113151D01*
X70532D01*
X70582Y113276D01*
G02X71880Y114151I1298J-525D01*
G01X76880D01*
G02X77891Y113719I0J-1400D01*
G03X78580Y113996I289J277D01*
G01Y116850D01*
G02X79980Y118251I1400J0D01*
G01X80280D01*
Y121372D01*
X76146Y125506D01*
Y129275D01*
X75846D01*
G02X74446Y130675I0J1400D01*
G01Y135675D01*
G02X75846Y137075I1400J0D01*
G01X80847D01*
G02X82247Y135675I0J-1400D01*
G01Y130675D01*
G02X80847Y129275I-1400J0D01*
G01X80547D01*
Y127329D01*
X84680Y123195D01*
Y118251D01*
X84980D01*
G02X86380Y116850I0J-1400D01*
G01Y113250D01*
G02X84980Y111850I-1400J0D01*
G01X79980D01*
G02X78969Y112282I0J1400D01*
G03X78280Y112005I-289J-277D01*
G01Y109896D01*
G03X78969Y109619I400J0D01*
G02X79980Y110051I1011J-969D01*
G01X84980D01*
G02X86380Y108650I0J-1400D01*
G01Y105050D01*
G02X84980Y103650I-1400J0D01*
G01X84680D01*
Y103341D01*
X82014Y100674D01*
X76580D01*
Y99792D01*
X76620Y99752D01*
Y89505D01*
X76920D01*
G02X77931Y89073I0J-1400D01*
G03X78620Y89350I289J277D01*
G01Y92205D01*
G02X80020Y93605I1400J0D01*
G01X85020D01*
G02X86318Y92730I0J-1400D01*
G01X86368Y92605D01*
X88770D01*
X88781Y92594D01*
X88936D01*
X88989Y92634D01*
G02X88937Y88193I1680J-2240D01*
G01X86958D01*
X86947Y88204D01*
X86368D01*
X86318Y88080D01*
G02X85020Y87204I-1298J525D01*
G01X80020D01*
G02X79009Y87636I0J1400D01*
G03X78320Y87359I-289J-277D01*
G01Y85250D01*
G03X79009Y84973I400J0D01*
G02X80020Y85405I1011J-969D01*
G01X85020D01*
G02X86318Y84530I0J-1400D01*
G01X86368Y84405D01*
X87231D01*
X90192Y81444D01*
Y81344D01*
X94533Y77003D01*
X95076D01*
Y77303D01*
G02X96476Y78703I1400J0D01*
G01X101476D01*
G02X102877Y77303I0J-1400D01*
G01Y72303D01*
G02X101476Y70903I-1400J0D01*
G01X96476D01*
G02X95076Y72303I0J1400D01*
G01Y72603D01*
X92711D01*
X85960Y79354D01*
X85822Y79258D01*
G02X85020Y79004I-803J1147D01*
G01X84720D01*
Y73419D01*
X83564Y72263D01*
Y69373D01*
X83864D01*
G02X85264Y67972I0J-1400D01*
G01Y62972D01*
G02X83864Y61572I-1400J0D01*
G01X78864D01*
G02X77464Y62972I0J1400D01*
G01Y63272D01*
X68258D01*
Y61472D01*
G02X66858Y60072I-1400J0D01*
G37*
G36*
G01X107854Y20470D02*
X102854D01*
G02X101454Y21870I0J1400D01*
G01Y26870D01*
G02X102854Y28270I1400J0D01*
G01X103154D01*
Y29690D01*
X102181Y30663D01*
Y34065D01*
X102056Y34115D01*
G02X101181Y35413I525J1298D01*
G01Y40413D01*
G02X101612Y41424I1400J0D01*
G03X101336Y42113I-277J289D01*
G01X99227D01*
G03X98950Y41424I0J-400D01*
G02X99381Y40413I-969J-1011D01*
G01Y35413D01*
G02X98541Y34130I-1400J0D01*
G01X98421Y34078D01*
Y33466D01*
X98461Y33412D01*
G02X93980I-2240J-1680D01*
G01X94020Y33466D01*
Y34053D01*
X93890Y34102D01*
G02X92981Y35413I491J1311D01*
G01Y40413D01*
G02X94381Y41814I1400J0D01*
G01X97236D01*
G03X97512Y42502I0J400D01*
G02X97081Y43513I969J1011D01*
G01Y48513D01*
G02X97956Y49811I1400J0D01*
G01X98081Y49862D01*
Y51106D01*
X98115Y51139D01*
Y52007D01*
X98075Y52060D01*
G02X102515Y52008I2240J1680D01*
G01Y49851D01*
X102636Y49799D01*
G02X103481Y48513I-555J-1286D01*
G01Y43513D01*
G02X103050Y42502I-1400J0D01*
G03X103327Y41814I277J-289D01*
G01X106181D01*
G02X107581Y40413I0J-1400D01*
G01Y35413D01*
G02X106706Y34115I-1400J0D01*
G01X106581Y34065D01*
Y32486D01*
X107555Y31513D01*
Y28270D01*
X107854D01*
G02X109255Y26870I0J-1400D01*
G01Y21870D01*
G02X107854Y20470I-1400J0D01*
G37*
G36*
G01X85413D02*
X80413D01*
G02X79013Y21870I0J1400D01*
G01Y26870D01*
G02X80413Y28270I1400J0D01*
G01X80713D01*
Y29679D01*
X80016Y30377D01*
Y33986D01*
X79890Y34037D01*
G02X79016Y35335I525J1298D01*
G01Y40335D01*
G02X79447Y41346I1400J0D01*
G03X79170Y42034I-277J289D01*
G01X77061D01*
G03X76784Y41346I0J-400D01*
G02X77216Y40335I-969J-1011D01*
G01Y35335D01*
G02X76065Y33957I-1400J0D01*
G01X75901Y33927D01*
Y33466D01*
X75941Y33412D01*
G02X71461I-2240J-1680D01*
G01X71501Y33466D01*
Y34131D01*
G02X70816Y35335I715J1204D01*
G01Y40335D01*
G02X72216Y41735I1400J0D01*
G01X75070D01*
G03X75347Y42424I0J400D01*
G02X74916Y43435I969J1011D01*
G01Y48435D01*
G02X75786Y49731I1400J0D01*
G01X75910Y49781D01*
Y51851D01*
G02X80350Y51903I2200J1732D01*
G01X80310Y51849D01*
Y51694D01*
X80316Y51689D01*
Y49783D01*
X80441Y49733D01*
G02X81316Y48435I-525J-1298D01*
G01Y43435D01*
G02X80884Y42424I-1400J0D01*
G03X81161Y41735I277J-289D01*
G01X84016D01*
G02X85416Y40335I0J-1400D01*
G01Y35335D01*
G02X84541Y34037I-1400J0D01*
G01X84416Y33986D01*
Y32200D01*
X85114Y31502D01*
Y28270D01*
X85413D01*
G02X86814Y26870I0J-1400D01*
G01Y21870D01*
G02X85413Y20470I-1400J0D01*
G37*
G36*
G01X60610D02*
X55610D01*
G02X54210Y21870I0J1400D01*
G01Y26870D01*
G02X55610Y28270I1400J0D01*
G01X55910D01*
Y30034D01*
X55527Y30416D01*
Y34970D01*
X55402Y35021D01*
G02X54527Y36319I525J1298D01*
G01Y41319D01*
G02X54959Y42330I1400J0D01*
G03X54682Y43019I-277J289D01*
G01X52573D01*
G03X52296Y42330I0J-400D01*
G02X52728Y41319I-969J-1011D01*
G01Y36319D01*
G02X51853Y35021I-1400J0D01*
G01X51728Y34970D01*
Y33464D01*
G02X47327I-2200J-1732D01*
G01Y34970D01*
X47202Y35021D01*
G02X46327Y36319I525J1298D01*
G01Y37004D01*
X43390Y39941D01*
Y44408D01*
X42965Y44833D01*
X38940D01*
Y44533D01*
G02X37539Y43133I-1400J0D01*
G01X32539D01*
G02X31139Y44533I0J1400D01*
G01Y49533D01*
G02X32539Y50933I1400J0D01*
G01X37539D01*
G02X38940Y49533I0J-1400D01*
G01Y49233D01*
X44788D01*
X45591Y48431D01*
X46279Y49119D01*
X50427D01*
Y49419D01*
G02X51828Y50819I1400J0D01*
G01X55428D01*
G02X56828Y49419I0J-1400D01*
G01Y44419D01*
G02X56396Y43408I-1400J0D01*
G03X56673Y42719I277J-289D01*
G01X59528D01*
G02X60928Y41319I0J-1400D01*
G01Y36319D01*
G02X60053Y35021I-1400J0D01*
G01X59928Y34970D01*
Y32239D01*
X60310Y31856D01*
Y28270D01*
X60610D01*
G02X62010Y26870I0J-1400D01*
G01Y21870D01*
G02X60610Y20470I-1400J0D01*
G37*
G36*
G01X41594Y12070D02*
X36594D01*
G02X35194Y13470I0J1400D01*
G01Y13670D01*
X32057D01*
X23102Y22625D01*
X22361D01*
Y20925D01*
G02X20961Y19525I-1400J0D01*
G01X8961D01*
G02X7560Y20925I0J1400D01*
G01Y28925D01*
G02X8961Y30325I1400J0D01*
G01X20961D01*
G02X22361Y28925I0J-1400D01*
G01Y27225D01*
X25008D01*
X33963Y18270D01*
X35194D01*
Y18470D01*
G02X36594Y19870I1400J0D01*
G01X41594D01*
G02X42995Y18470I0J-1400D01*
G01Y18270D01*
X54210D01*
Y18470D01*
G02X55610Y19870I1400J0D01*
G01X60610D01*
G02X62010Y18470I0J-1400D01*
G01Y18270D01*
X79013D01*
Y18470D01*
G02X80413Y19870I1400J0D01*
G01X85413D01*
G02X86814Y18470I0J-1400D01*
G01Y18270D01*
X101454D01*
Y18470D01*
G02X102854Y19870I1400J0D01*
G01X107854D01*
G02X109255Y18470I0J-1400D01*
G01Y18270D01*
X111198D01*
X114590Y21662D01*
Y61071D01*
X118620Y65101D01*
X121590D01*
X121645Y65214D01*
G02X122904Y66001I1259J-613D01*
G01X127904D01*
G02X128915Y65570I0J-1400D01*
G03X129604Y65846I289J277D01*
G01Y68701D01*
G02X131004Y70101I1400J0D01*
G01X136004D01*
G02X137302Y69226I0J-1400D01*
G01X137352Y69101D01*
X145956D01*
G02X149888Y65169I1732J-2200D01*
G01Y53931D01*
X146217Y50260D01*
G03X146500Y49577I283J-283D01*
G01X149386D01*
G02X150786Y48177I0J-1400D01*
G01Y40177D01*
G02X149386Y38777I-1400J0D01*
G01X137386D01*
G02X135986Y40177I0J1400D01*
G01Y48177D01*
G02X137386Y49577I1400J0D01*
G01X141186D01*
Y51452D01*
X145488Y55754D01*
Y64701D01*
X137352D01*
X137302Y64576D01*
G02X136004Y63701I-1298J525D01*
G01X131004D01*
G02X129993Y64132I0J1400D01*
G03X129304Y63855I-289J-277D01*
G01Y61746D01*
G03X129993Y61470I400J0D01*
G02X131004Y61901I1011J-969D01*
G01X136004D01*
G02X137302Y61026I0J-1400D01*
G01X137352Y60901D01*
X140040D01*
G02Y56501I1732J-2200D01*
G01X137352D01*
X137302Y56376D01*
G02X136004Y55501I-1298J525D01*
G01X131004D01*
G02X129604Y56901I0J1400D01*
G01Y59755D01*
G03X128915Y60032I-400J0D01*
G02X127904Y59601I-1011J969D01*
G01X122904D01*
G02X121645Y60388I0J1400D01*
G01X121590Y60501D01*
X120525D01*
X119190Y59165D01*
Y19756D01*
X113104Y13670D01*
X109255D01*
Y13470D01*
G02X107854Y12070I-1400J0D01*
G01X102854D01*
G02X101454Y13470I0J1400D01*
G01Y13670D01*
X86814D01*
Y13470D01*
G02X85413Y12070I-1400J0D01*
G01X80413D01*
G02X79013Y13470I0J1400D01*
G01Y13670D01*
X62010D01*
Y13470D01*
G02X60610Y12070I-1400J0D01*
G01X55610D01*
G02X54210Y13470I0J1400D01*
G01Y13670D01*
X42995D01*
Y13470D01*
G02X41594Y12070I-1400J0D01*
G37*
G54D23*
X137480Y20000D03*
G54D22*
X20000Y137480D03*
%LPD*%
G75*
G54D10*
X14961Y11925D03*
Y24925D03*
X15591Y69642D03*
X15433Y97594D03*
Y110594D03*
X15591Y82642D03*
X143386Y31177D03*
Y44177D03*
G54D20*
G01X39094Y24370D02*
Y28543D01*
X35197Y32441D01*
X26497D01*
X15157Y43780D01*
Y47480D01*
G01X15591Y82642D02*
X25587D01*
X31088Y77140D01*
X38465D01*
G01X49528Y38819D02*
Y31732D01*
G01X53628Y46919D02*
X47191D01*
X45591Y45319D01*
G01D02*
Y40852D01*
X47624Y38819D01*
X49528D01*
G01X35039Y47033D02*
X43876D01*
X45591Y45319D01*
G01X49813Y86502D02*
X46013D01*
X44370Y88145D01*
G01Y98307D02*
Y108913D01*
X46289Y110832D01*
X50089D01*
G01X52165Y98307D02*
X44370D01*
G01Y88145D02*
Y98307D01*
G01Y88145D02*
X38580D01*
X36287Y90438D01*
Y95742D01*
G01X38465Y77140D02*
X56654D01*
X57913Y78400D01*
Y82402D01*
G01X47441Y133175D02*
Y125079D01*
X43845Y121483D01*
X34488D01*
G01X82216Y37835D02*
Y31288D01*
X82913Y30591D01*
Y24370D01*
G01X78116Y45935D02*
Y50777D01*
X78110Y50783D01*
Y53583D01*
G01X73701Y31732D02*
Y37520D01*
X74016Y37835D01*
G01X57728Y38819D02*
Y31328D01*
X58110Y30945D01*
Y24370D01*
G01X63858Y65472D02*
X81364D01*
G01X82520Y82205D02*
Y74331D01*
X81364Y73175D01*
Y65472D01*
G01X57913Y90602D02*
X64775D01*
G01X82520Y90405D02*
X87858D01*
X87869Y90394D01*
X90669D01*
G01X58189Y106732D02*
X64291D01*
X68509Y110950D01*
X74380D01*
G01D02*
Y102874D01*
G01D02*
Y98880D01*
X74420Y98841D01*
Y86305D01*
G01X74380Y102874D02*
X81102D01*
X82480Y104252D01*
Y106850D01*
G01X82520Y82205D02*
X86320D01*
X87992Y80532D01*
Y80433D01*
X93622Y74803D01*
X98976D01*
G01X78347Y133175D02*
Y126417D01*
X82480Y122284D01*
Y115050D01*
G01X62480Y133175D02*
Y129375D01*
X58189Y125084D01*
Y114932D01*
G01X104381Y37913D02*
Y31575D01*
X105354Y30602D01*
Y24370D01*
G01X100315Y53740D02*
Y50228D01*
X100281Y50194D01*
Y46013D01*
G01X96221Y31732D02*
Y37874D01*
X96181Y37913D01*
G01X112723Y95230D02*
Y89926D01*
X112716Y89919D01*
Y87205D01*
X115551Y84370D01*
G01X106850Y83189D02*
X103425D01*
X103411Y83203D01*
X98976D01*
G01X100906Y104356D02*
Y92126D01*
X98976Y90197D01*
Y83203D01*
G01X131192Y131654D02*
Y126442D01*
X129592Y124842D01*
X104567D01*
X102205Y127205D01*
Y136811D01*
G01X115551Y84370D02*
Y79252D01*
X118346Y76457D01*
X125029D01*
G01X132929D02*
X141772D01*
G01Y58701D02*
X133504D01*
G01Y66901D02*
X147688D01*
G01X125979Y90039D02*
X121220D01*
X115551Y84370D01*
G01X133879Y90039D02*
X141220D01*
X142953Y91772D01*
Y100551D01*
G01D02*
X133504D01*
G01X146732Y146850D02*
Y104331D01*
X142953Y100551D01*
G01X122992Y131654D02*
X114173D01*
G01D02*
X114016Y131811D01*
Y131939D01*
X113976Y131978D01*
Y139921D01*
G01X140315Y108751D02*
X133504D01*
G01X146732Y146850D02*
X129297D01*
X127092Y144646D01*
G01D02*
X123416Y148321D01*
X113976D01*
G01X127092Y144646D02*
Y139754D01*
G01X147688Y66901D02*
Y54842D01*
X143386Y50540D01*
Y44177D01*
G54D11*
X15157Y47480D03*
Y55380D03*
X34488Y113583D03*
Y121483D03*
G54D21*
G01X14961Y7225D02*
Y11925D01*
G01D02*
Y16625D01*
G01X8260Y11925D02*
X14961D01*
G01D02*
X21661D01*
G01X39094Y15970D02*
X33010D01*
X24055Y24925D01*
X14961D01*
G01X15157Y52280D02*
Y55380D01*
G01D02*
Y58480D01*
G01X10657Y55380D02*
X15157D01*
G01D02*
X19658D01*
G01X15591Y64942D02*
Y69642D01*
G01D02*
Y74342D01*
G01X8890Y69642D02*
X15591D01*
G01D02*
X22291D01*
G01X15433Y92894D02*
Y97594D01*
G01D02*
Y102295D01*
G01X8733Y97594D02*
X15433D01*
G01D02*
X22133D01*
G01X15433Y110594D02*
Y118622D01*
X38386Y141575D01*
X47441D01*
G01X39094Y15970D02*
X58110D01*
G01X35039Y52233D02*
Y55433D01*
G01D02*
Y58633D01*
G01X31839Y55433D02*
X35039D01*
G01D02*
X38240D01*
G01X38465Y65540D02*
Y68740D01*
G01D02*
Y71940D01*
G01X35264Y68740D02*
X38465D01*
G01D02*
X41665D01*
G01X34488Y110483D02*
Y113583D01*
G01D02*
Y116683D01*
G01X29988Y113583D02*
X34488D01*
G01D02*
X38988D01*
G01X47441Y141575D02*
X62480D01*
G01X58110Y15970D02*
X82913D01*
G01D02*
X105354D01*
G01X62480Y141575D02*
X78347D01*
G01X94305Y136811D02*
X88583D01*
X83819Y141575D01*
X78347D01*
G01X125404Y62801D02*
X119572D01*
X116890Y60118D01*
Y20709D01*
X112151Y15970D01*
X105354D01*
G01X89764Y62272D02*
Y65472D01*
G01D02*
Y68673D01*
G01X86564Y65472D02*
X89764D01*
G01D02*
X92964D01*
G01X100906Y109556D02*
Y112756D01*
G01D02*
Y115956D01*
G01X97705Y112756D02*
X100906D01*
G01D02*
X104106D01*
G01X94305Y136811D02*
Y128268D01*
X94252Y128215D01*
Y125315D01*
G01X136686Y31177D02*
X143386D01*
G01X119055Y104651D02*
X125404D01*
G01X143386Y26477D02*
Y31177D01*
G01D02*
Y35877D01*
G01Y31177D02*
X150086D01*
G54D12*
X20000Y137480D03*
X137480Y20000D03*
G54D13*
X39094Y15970D03*
X35039Y47033D03*
X39094Y24370D03*
X38465Y68740D03*
Y77140D03*
X35039Y55433D03*
X47441Y133175D03*
Y141575D03*
X82913Y15970D03*
X58110D03*
X82913Y24370D03*
X58110D03*
X81364Y65472D03*
X78347Y133175D03*
X62480D03*
X78347Y141575D03*
X62480D03*
X105354Y15970D03*
Y24370D03*
X98976Y74803D03*
X89764Y65472D03*
X100906Y104356D03*
X98976Y83203D03*
X100906Y112756D03*
X113976Y139921D03*
Y148321D03*
G54D14*
X53628Y46919D03*
X49528Y38819D03*
X57728D03*
X78116Y45935D03*
X74016Y37835D03*
X82216D03*
X100281Y46013D03*
X96181Y37913D03*
X104381D03*
X127092Y139754D03*
X122992Y131654D03*
X131192D03*
G54D15*
X49528Y31732D03*
X52165Y98307D03*
X73701Y31732D03*
X78110Y53583D03*
X64775Y90602D03*
X96221Y31732D03*
X100315Y53740D03*
X90669Y90394D03*
X106850Y83189D03*
X114173Y131654D03*
X94252Y125315D03*
X141772Y58701D03*
Y76457D03*
X119055Y104651D03*
X140315Y108751D03*
X147688Y66901D03*
G54D16*
X49813Y86502D03*
X50089Y110832D03*
X58189Y106732D03*
X82480Y106850D03*
X57913Y82402D03*
Y90602D03*
X74420Y86305D03*
X82520Y82205D03*
Y90405D03*
X58189Y114932D03*
X74380Y110950D03*
X82480Y115050D03*
X125404Y62801D03*
X133504Y58701D03*
Y66901D03*
X125404Y104651D03*
X133504Y100551D03*
Y108751D03*
G54D17*
X36287Y95742D03*
X63858Y65472D03*
X112723Y95230D03*
G54D18*
X102205Y136811D03*
X94305D03*
X132929Y76457D03*
X125029D03*
X125979Y90039D03*
X133879D03*
G54D19*
X146732Y146850D03*
M02*
